<?xml version="1.0" encoding="UTF-8"?>
<!-- Generator: Adobe Illustrator 27.7.0, SVG Export Plug-In . SVG Version: 6.00 Build 0)  -->
<svg xmlns="http://www.w3.org/2000/svg" xmlns:xlink="http://www.w3.org/1999/xlink" version="1.1" id="Capa_1" x="0px" y="0px" viewBox="0 0 300 60.7" style="enable-background:new 0 0 300 60.7;" xml:space="preserve">
<style type="text/css">
	.st0{fill:#EC1634;}
	.st1{fill:#4E8098;}
</style>
<path class="st0" d="M24.5,15.8c3.1,0,5.4,0.6,7,1.7c1.6,1.1,2.4,2.8,2.4,5.1c0,1.3-0.2,2.4-0.6,3.4c-0.4,1-1,1.9-1.9,2.6  c-0.9,0.7-2,1.2-3.3,1.6c-1.4,0.4-3,0.6-4.9,0.6H0l5-6.4h18.8c0.9,0,1.6-0.1,2-0.4c0.4-0.3,0.6-0.8,0.6-1.4c0-0.6-0.2-1.1-0.6-1.4  c-0.4-0.3-1.1-0.4-2-0.4H10.2c-1.6,0-3-0.2-4.2-0.5c-1.2-0.3-2.1-0.8-2.9-1.5c-0.8-0.6-1.3-1.4-1.7-2.3c-0.4-0.9-0.6-1.9-0.6-2.9  c0-1.2,0.2-2.2,0.6-3.2c0.4-1,1-1.8,1.9-2.4c0.9-0.7,2-1.2,3.3-1.6c1.4-0.4,3-0.6,4.9-0.6h21.6l-5,6.5H11c-0.9,0-1.6,0.1-2,0.4  c-0.4,0.2-0.7,0.7-0.7,1.3c0,0.6,0.2,1.1,0.7,1.4c0.4,0.3,1.1,0.4,2,0.4H24.5z M67.8,19.9c0,7.5-5.2,11.3-15.5,11.3  c-3,0-5.6-0.2-7.7-0.7c-2.2-0.5-3.9-1.2-5.3-2.1c-1.4-0.9-2.4-2.1-3.1-3.5c-0.7-1.4-1-3-1-4.9v-14h7.7v14c0,0.9,0.1,1.7,0.4,2.3  c0.2,0.6,0.7,1.1,1.4,1.5c0.7,0.4,1.6,0.7,2.9,0.8c1.2,0.2,2.9,0.2,4.8,0.2c1.5,0,2.7-0.1,3.7-0.3c1-0.2,1.8-0.5,2.4-0.9  c0.6-0.4,1-0.9,1.3-1.5c0.3-0.6,0.4-1.4,0.4-2.2v-14h7.7V19.9z M95.5,31.2c-0.5,0-1-0.1-1.5-0.2c-0.5-0.2-1-0.5-1.6-1.1L77.2,16.2  v14.6h-7V10.1c0-0.8,0.1-1.5,0.4-2.1c0.2-0.6,0.5-1.1,0.9-1.5c0.4-0.4,0.8-0.6,1.3-0.8c0.5-0.2,1-0.3,1.6-0.3c0.5,0,0.9,0.1,1.4,0.2  c0.5,0.2,1,0.5,1.7,1.1l15.3,13.7V5.9h7v20.6c0,0.8-0.1,1.5-0.4,2.1c-0.2,0.6-0.5,1.1-0.9,1.5c-0.4,0.4-0.8,0.7-1.4,0.8  C96.6,31.1,96.1,31.2,95.5,31.2 M116.8,13.1l-3.8,4.8h-12.4l3.8-4.8H116.8z M150.7,15.2c0,1.4-0.3,2.6-0.8,3.8  c-0.5,1.1-1.3,2.1-2.4,2.9c-1.1,0.8-2.3,1.4-3.9,1.9c-1.5,0.4-3.2,0.7-5.2,0.7h-13v6.4h-7.7V18.1h21.4c1.2,0,2.1-0.3,2.8-0.8  c0.7-0.5,1-1.2,1-2.1c0-0.9-0.3-1.6-1-2.1c-0.7-0.5-1.6-0.8-2.8-0.8h-21.4l5.1-6.5h15.6c1.9,0,3.7,0.2,5.2,0.7  c1.5,0.5,2.8,1.1,3.8,1.9c1,0.8,1.8,1.8,2.4,2.9C150.4,12.6,150.7,13.9,150.7,15.2 M214.9,21.5c-0.5-1-1-1.8-1.4-2.5  c-0.4-0.7-0.8-1.4-1.1-2c-0.3-0.6-0.6-1.1-0.8-1.6c-0.2-0.5-0.5-0.9-0.7-1.4c-0.2,0.4-0.4,0.9-0.7,1.4c-0.2,0.5-0.5,1-0.8,1.6  c-0.3,0.6-0.7,1.2-1.1,2c-0.4,0.7-0.9,1.6-1.4,2.5l-4,7.1c-0.4,0.8-1,1.4-1.7,1.9c-0.7,0.5-1.5,0.7-2.5,0.7c-1,0-1.8-0.3-2.6-0.8  c-0.8-0.6-1.3-1.4-1.7-2.6l-6.3-21.9h7.7l2.3,8.7c0.4,1.4,0.7,2.7,1,3.7c0.3,1.1,0.5,2.1,0.7,3.1c0.4-0.9,0.9-1.8,1.4-2.9  c0.5-1.1,1.2-2.4,2.1-4l3.3-6.3c0.3-0.6,0.6-1.1,1-1.5c0.3-0.4,0.7-0.6,1-0.8c0.4-0.2,0.7-0.3,1.1-0.4c0.4-0.1,0.8-0.1,1.3-0.1  c0.5,0,0.9,0,1.3,0.1c0.4,0.1,0.8,0.2,1.1,0.4c0.4,0.2,0.7,0.5,1,0.8c0.3,0.4,0.7,0.9,1,1.5l3.3,6.3c0.5,0.9,0.9,1.6,1.2,2.3  c0.3,0.7,0.7,1.3,0.9,1.8c0.3,0.5,0.5,1,0.7,1.5c0.2,0.4,0.4,0.9,0.6,1.3c0.2-1,0.4-2,0.7-3.1c0.3-1.1,0.6-2.3,1-3.7l2.3-8.7h7.5  l-6.4,21.9c-0.3,1.2-0.9,2-1.7,2.6c-0.8,0.6-1.7,0.8-2.6,0.8c-1,0-1.8-0.2-2.5-0.7c-0.7-0.5-1.3-1.1-1.7-1.9L214.9,21.5z   M263.9,24.4l-5,6.4h-24V5.9h28.8l-5,6.5h-16.1v3h19.7L258,21h-15.3v3.4H263.9z M300,30.8h-10.3l-5.5-6.6h-11.8v6.6h-7.7V18.1h21.7  c1.2,0,2.2-0.2,3-0.7c0.8-0.5,1.2-1.2,1.2-2c0-1-0.4-1.7-1.1-2.2c-0.7-0.5-1.8-0.7-3.1-0.7h-21.7l5-6.5h16c1.4,0,2.9,0.1,4.4,0.4  c1.5,0.3,2.9,0.7,4.1,1.4c1.2,0.7,2.3,1.6,3.1,2.7c0.8,1.1,1.2,2.6,1.2,4.4c0,1-0.1,1.9-0.4,2.8c-0.3,0.9-0.7,1.7-1.3,2.3  c-0.6,0.7-1.2,1.3-2,1.8c-0.8,0.5-1.7,0.8-2.7,1c0.4,0.3,0.9,0.7,1.4,1.2c0.5,0.5,1.2,1.2,2.1,2L300,30.8z M170.7,0  c-10,0-18.1,8.1-18.1,18.1c0,4.8,1.9,9.2,5,12.4c0,0,0,0,0,0l0,0c0,0,0-0.1,0-0.1c0,0,0,0,0,0c0,0,0,0,0,0c0,0,0-0.1,0-0.1  c0,0,0,0,0,0c0,0-0.1-0.1-0.1-0.2l0-0.1c0,0,0,0,0-0.1c0,0,0,0,0,0c0-0.1-0.1-0.2-0.1-0.3c0,0,0-0.1,0-0.1c0-0.1,0.1-0.1,0.1-0.2  c-0.1-0.1-0.1-0.1,0-0.2c0,0,0,0,0,0c0,0-0.1-0.1,0-0.1c0-0.1,0-0.1,0-0.1c0,0,0-0.1,0-0.1c0,0,0-0.1,0-0.1c0,0,0,0,0,0c0,0,0,0,0,0  c0,0,0,0,0,0c0,0,0,0,0,0c0,0,0,0,0-0.1c0,0,0,0,0,0c0,0,0,0,0,0c0-0.1,0.1-0.2,0-0.3c0,0,0-0.1,0-0.1c0,0,0,0,0,0  c0,0,0-0.1,0.1-0.1c0,0,0,0,0,0c0,0,0,0,0,0c0,0,0-0.1-0.1-0.1c0,0,0,0,0,0c0,0,0,0,0,0c0-0.1,0.1-0.1,0.1-0.2c0,0,0,0,0,0  c0-0.1,0.2-0.4,0.2-0.5c0-0.1,0.1-0.2,0.1-0.2c0.1,0,0.1,0,0.2-0.1c0,0,0,0,0,0c0,0,0,0,0.1,0c0,0,0,0,0,0c0,0,0,0,0,0  c0,0,0,0,0.1,0c0-0.1,0.1-0.2,0.1-0.2c0,0-0.1-0.1-0.1-0.1c0,0,0,0,0,0c0,0-0.1-0.1-0.1-0.1c0,0,0,0,0,0c0,0,0,0,0-0.1c0,0,0,0,0,0  c0,0-0.1,0-0.1-0.1c0,0,0,0,0,0c0,0,0,0-0.1,0c0,0,0-0.1,0-0.1c0,0,0,0,0,0l0-0.1c0-0.1,0-0.1,0-0.1c0,0,0,0,0,0  c0-0.1,0-0.1-0.1-0.2c0,0,0,0,0,0c0-0.1-0.1-0.2-0.1-0.3l0-0.1c0,0,0,0,0,0c0,0,0,0,0-0.1c-0.1,0-0.1-0.1,0-0.2c0,0,0,0,0,0  l-0.1-0.1c0,0,0-0.1,0-0.1c0,0,0,0,0,0c0,0,0-0.1,0-0.1c0,0,0-0.1,0-0.1c0,0,0,0,0,0c0,0,0,0,0,0c0,0,0-0.1,0-0.1c0,0,0-0.1,0-0.1  c0-0.1-0.1-0.2-0.1-0.3c0,0,0,0,0,0l0-0.1c0,0,0,0,0-0.1l0-0.1c0,0,0,0,0,0c0,0,0,0,0,0l0,0c0,0,0,0,0,0c0,0,0,0,0,0c0,0,0,0,0,0  l0,0c0,0,0,0,0,0c0,0,0,0,0,0c0,0,0,0,0,0c0,0,0,0,0-0.1c0,0,0,0,0,0c0,0,0,0,0-0.1c0,0,0-0.1,0-0.1c0,0,0-0.1-0.1-0.1  c0-0.1,0-0.1,0-0.2c-0.1,0,0,0,0-0.1c0,0,0,0,0,0c0,0,0,0,0,0c0,0,0,0,0,0c0-0.1,0.1-0.1,0.1-0.1c0.1-0.1,0.1-0.3,0.1-0.4  c-0.1-0.1-0.1-0.2-0.2-0.3c0,0,0-0.1,0-0.1c0-0.1,0.1-0.2,0.1-0.3c0,0,0,0,0,0c0,0,0,0-0.1,0c0,0,0,0-0.1,0c0,0,0,0,0,0c0,0,0,0,0,0  c0,0,0,0,0-0.1c0,0,0,0,0,0c0-0.1,0-0.1-0.1-0.2c0,0,0,0,0,0c0,0-0.1,0-0.1-0.1c0,0,0-0.1,0-0.1c0,0,0-0.1-0.1-0.1  c0-0.1-0.1-0.2-0.1-0.4c0,0-0.1-0.1-0.1-0.1c0,0,0-0.1,0-0.1c0,0,0,0,0,0c0,0,0,0,0,0c0,0-0.1,0-0.1,0c0-0.1-0.1-0.2-0.1-0.2  c0,0,0,0,0-0.1c0,0,0,0,0,0c-0.1,0-0.1-0.1-0.1-0.1c0,0,0,0-0.1,0c0,0,0,0,0,0c0,0,0,0,0,0c0,0-0.1-0.1-0.1-0.1c0,0,0,0,0,0  c0,0,0,0,0,0c0,0,0,0,0,0c0,0-0.1,0-0.1-0.1c0,0,0-0.1,0-0.1c0,0-0.1-0.1-0.1-0.1c0-0.1,0.1-0.2,0.1-0.2c0,0,0-0.1,0-0.1  c0,0,0,0,0,0c0,0,0,0,0,0c0,0,0-0.1-0.1-0.1c0,0,0,0,0,0c0,0,0,0,0,0c0,0,0,0,0,0c0,0-0.1-0.1-0.1-0.1c0-0.1,0-0.1-0.1-0.2  c0,0,0-0.1,0-0.1c0,0,0-0.1-0.1-0.1c0-0.1-0.1-0.2-0.1-0.3c0,0,0,0,0,0c0,0,0-0.1,0-0.1c0,0-0.1,0-0.1,0c0,0,0,0,0,0  c0,0,0-0.1,0-0.1c0,0,0,0,0,0c0,0,0,0,0,0c0,0,0,0,0-0.1c-0.1-0.1-0.1-0.3-0.2-0.4c0,0,0-0.1,0-0.1c0,0,0,0,0,0c0,0,0-0.1,0-0.1  c0,0,0-0.1-0.1-0.1l0.1-0.1c0,0,0-0.1-0.1-0.1c0-0.1-0.1-0.2-0.1-0.3c0,0,0-0.1-0.1-0.1c0,0,0-0.1,0.1-0.1c0-0.1-0.1-0.2-0.1-0.2  c0-0.1,0-0.1,0-0.2c0,0,0,0,0-0.1c0,0,0,0,0-0.1c0,0,0,0,0-0.1c0,0,0,0,0,0c0,0,0,0,0,0c0,0,0-0.1,0-0.1c0,0,0-0.1,0-0.1  c0,0,0,0,0,0c0,0,0,0,0,0c0,0,0-0.1-0.1-0.1c0,0,0,0,0,0c0,0,0,0,0-0.1c0,0,0,0,0-0.1c0,0,0,0,0,0c0,0,0-0.1,0-0.1c0,0,0,0,0,0  c0,0,0-0.1,0-0.1c0,0,0,0,0,0c0,0,0-0.1,0.1-0.1c0,0,0,0,0,0c0-0.1,0.2-0.4,0.2-0.4c0,0,0,0,0,0c0.1,0,0.2-0.1,0.2-0.1  c0,0,0,0,0.1,0c0,0,0-0.1,0.1-0.1c0,0,0,0,0,0c0,0,0-0.1,0-0.1c0,0,0,0,0,0c0-0.1,0.1-0.1,0.2-0.1c0.1,0,0.2-0.1,0.3-0.1  c0,0,0.1,0,0.1,0c0.1,0,0,0,0.1,0c0.1-0.1,0.2,0,0.3,0c0,0,0,0,0,0c0,0,0,0,0.1,0c0,0,0,0,0,0c0.1,0,0.2,0.2,0.2,0.2  c0.2,0.1,0.4,0.2,0.6,0.3c0,0.1,0,0,0,0.1c0,0,0,0,0,0c0,0,0,0,0,0l0,0.1c0,0,0,0,0,0c0,0,0,0,0,0c0.1,0,0.1,0.1,0.2,0.1  c0,0,0,0,0,0c0,0,0,0,0,0c0,0,0,0.1,0,0.1c0.1,0,0.1,0.1,0.2,0.1c0,0,0,0,0,0c0,0,0,0,0,0c0,0,0,0,0,0c0,0,0,0,0,0c0,0,0,0.1,0,0.1  c0,0,0,0,0,0c0,0,0,0,0,0c0,0,0.1,0,0.1,0c0,0,0,0,0,0c0,0,0,0,0,0c0,0,0,0,0,0c0,0,0.1,0.1,0.1,0.1c0,0,0,0,0,0c0,0,0,0,0,0  c0,0,0,0,0,0.1c0,0,0.1,0,0.1,0c0,0,0,0,0,0c0,0,0,0,0,0.1c0,0,0,0,0,0c0,0,0,0,0,0c0,0,0,0,0,0c0,0,0,0,0,0c0,0,0,0,0,0  c0,0,0,0,0,0.1c0,0,0,0,0,0l0,0c0,0,0,0,0,0l0,0.1c0,0,0,0,0,0c0,0,0,0,0,0c0,0,0,0,0,0c0,0,0,0,0,0.1c0,0,0,0,0,0  c0,0,0,0.1,0.1,0.1c0,0,0,0,0,0c0,0,0,0,0,0c0,0,0,0.1,0,0.1c0,0,0,0,0,0c0,0,0,0,0,0c0,0,0,0.1,0.1,0.1c0,0,0,0,0,0c0,0,0,0,0,0  c0,0,0,0,0,0c0,0,0,0,0,0c0,0,0,0,0,0c0,0,0,0,0,0c0,0,0,0,0,0c0,0,0,0.1,0,0.1c0,0,0,0,0,0c0,0,0,0,0,0c0,0.1-0.1,0.1-0.1,0.2  c0,0,0,0,0,0c0,0,0.1,0.1,0.1,0.1c0,0.1,0,0.1,0.1,0.2c0,0,0,0,0,0c0,0,0,0,0,0c0,0,0,0,0,0.1c0,0,0,0,0,0l0,0c0,0,0,0.1,0,0.1  c0,0,0,0,0,0l0,0.1c0,0,0,0,0,0c0,0,0,0,0,0c0,0,0,0,0,0c0,0.1-0.2,0.2-0.1,0.3c0,0,0,0,0,0l0,0.1c0,0.1,0,0.1,0.1,0.2  c0,0.1-0.1,0.1-0.1,0.2c0,0,0,0,0,0c0,0,0,0.1,0,0.1c0.2,0.1,0.2,0.1,0.1,0.3c0,0,0,0.1-0.1,0.1c0,0,0,0,0,0.1c0,0,0,0,0,0.1  c0,0.1,0.1,0.2,0.1,0.3c0.1,0.2,0.2,0.4,0.2,0.7l0.1,0.1c0,0,0,0.1,0,0.1c0,0,0,0,0,0c0,0,0,0.1,0,0.1c0,0,0,0,0,0c0,0,0,0,0,0.1  c0,0,0,0,0,0c0,0.1,0,0.1-0.1,0.2c0,0,0,0.1,0.1,0.1c0,0.1-0.1,0.1-0.1,0.2c0,0,0,0,0,0c0,0,0,0,0,0c0,0,0,0,0,0c0,0,0,0,0,0.1  c0,0,0,0,0,0c0,0.1-0.1,0.1-0.1,0.2c0,0,0,0,0,0c0,0,0,0,0,0c0,0,0,0,0,0c0,0,0,0,0,0c0,0,0,0,0,0c0,0,0,0,0,0c0,0,0,0,0,0.1  c0,0,0,0,0,0c0,0.1-0.1,0.2,0,0.3c-0.1,0.2-0.1,0.4-0.2,0.6c0.1,0,0,0.1,0,0.2c0,0,0,0,0,0c0,0,0,0.1,0,0.1c0,0,0,0,0,0  c0,0.1,0,0,0,0.1c0,0,0,0,0,0c0,0,0,0,0,0l0,0c0,0,0,0,0,0l0,0c0,0.1,0,0.1,0,0.2c0,0-0.1,0.1-0.1,0.1c0,0,0,0,0,0  c0,0.1,0,0.1,0,0.1c0,0,0,0,0,0c0,0.1-0.1,0.1-0.1,0.2c0,0,0,0,0,0.1c0,0,0.1,0,0.1,0c0,0,0-0.1,0.1-0.1c0,0,0,0,0.1,0c0,0,0,0,0,0  c0,0,0,0.1,0,0.1c0.1,0,0.1,0.1,0.2,0.1c0,0,0,0,0,0c0,0,0.1,0,0.1,0c0,0,0,0,0,0c0,0,0,0,0,0c0,0,0,0,0-0.1c0,0-0.1-0.1-0.1-0.1  c0-0.1,0-0.1-0.1-0.1c0,0-0.1,0-0.1,0c0,0,0,0,0-0.1c0,0,0,0,0-0.1c0,0,0.1,0,0.1,0c0,0,0,0,0.1-0.1c0,0,0,0,0,0  c0-0.1-0.1-0.1,0-0.2c0,0,0.1-0.1,0.1-0.1c0,0,0,0,0,0c0,0,0-0.1,0.1-0.1c0.1,0,0.1,0.1,0.2,0.1c0,0,0,0.1,0,0.1c0,0,0,0,0,0  c0,0,0,0.1,0,0.1c0,0,0,0,0,0c0,0,0,0,0,0c0,0,0,0,0,0c0,0,0,0,0,0c0,0,0,0,0,0c0,0,0,0,0,0c0,0,0,0.1,0.1,0.1c0,0,0,0,0,0  c-0.1,0.1-0.1,0.1-0.2,0.2c0,0,0,0.1,0.1,0.1c0.1,0,0.2,0,0.3-0.2c0-0.1-0.1-0.1-0.1-0.2c0.1,0,0.1,0,0.2,0c0,0,0,0,0,0  c0,0,0.1,0,0.1,0.1c0,0,0.1-0.1,0.1-0.1c0,0,0,0,0.1,0l0-0.1c0,0,0,0,0,0c0,0,0,0,0-0.1c0,0,0,0,0,0c0,0,0,0,0,0c0,0,0,0,0,0  c0,0,0,0,0,0c0,0,0.1,0,0.1,0c0,0,0-0.1,0.1-0.1c0,0,0.1,0,0.1,0c0,0,0-0.1,0.1-0.1c0,0,0.1,0,0.1,0l0.1-0.1c0,0,0,0,0.1,0  c0,0,0,0,0,0l0.1,0c0,0,0,0,0,0c0,0,0,0,0,0c0-0.1,0.1-0.1,0.1-0.2c0,0,0.1,0,0.1,0c0,0,0,0,0,0c0,0,0,0,0,0c0,0,0,0,0.1,0  c0.1,0,0.1,0,0.2,0c0,0,0,0,0.1,0c0,0,0,0,0,0c0.1,0,0.1,0,0.2-0.1c0,0,0,0,0,0c0,0,0,0,0,0c0.1,0,0.1,0,0.2-0.1c0,0,0-0.1,0.1-0.1  c0,0,0,0,0.1,0c0,0,0,0,0,0c0.1,0,0.1-0.1,0.1-0.2c0.1,0,0.1,0,0.2-0.1l0,0c0,0,0.1,0,0.1,0c0,0,0,0,0,0l0.1,0c0,0,0,0,0,0  c0,0,0,0,0,0c0,0,0-0.1,0-0.1c0,0,0,0,0,0c0-0.1,0-0.1,0.1-0.1c0.1,0,0.2,0.1,0.3,0.2c0,0,0,0,0,0.1c0,0,0,0,0,0c0,0,0,0.1,0,0.1  c0,0,0,0,0,0c0,0,0.1,0.1,0.1,0.1c0,0,0,0,0,0c0,0,0,0,0,0c0,0,0,0,0,0c0.1,0,0.1-0.1,0-0.2c0,0-0.1,0-0.1-0.1c0,0,0,0,0,0  c0,0,0,0,0,0c0,0,0,0,0,0c0,0,0,0,0.1,0c0,0,0,0,0,0c0,0,0,0,0,0c0,0,0,0,0,0c0,0,0,0,0.1,0c0,0,0,0,0,0c0.1,0,0.1,0,0.1-0.1  c0,0,0-0.1-0.1-0.1c0,0,0,0,0,0c-0.1,0.1-0.1,0.1-0.2,0.1c0,0,0-0.1,0-0.1c0,0,0.1,0,0.1,0c0,0,0,0,0.1,0c0,0,0,0,0,0l0,0  c0.1,0,0.1,0,0.2,0c0,0,0,0,0,0c0,0,0,0,0,0c0,0,0,0,0,0c0,0,0,0,0-0.1c0,0,0,0,0,0c0,0,0,0,0,0c0,0,0-0.1,0-0.1c0,0,0,0,0.1,0  c0.1,0,0.1,0,0.1-0.1c0,0,0-0.1-0.1-0.1l0-0.1c0,0,0,0,0,0c0.1,0,0.1,0,0.1-0.1c0,0,0-0.1-0.1-0.1c0,0,0,0,0,0c0,0,0-0.1,0-0.1  c0,0,0,0,0,0c0-0.1,0-0.2,0-0.3c0,0,0,0,0.1,0l0,0.1c0,0,0,0,0,0c0,0,0,0,0,0c0,0.1,0,0.1,0,0.1c0,0,0,0,0,0c0,0,0.1,0,0.1,0  c0,0,0.1-0.1,0.1-0.1l0.1,0c0,0,0,0.1,0.1,0.1c0,0,0.1-0.1,0.1-0.2c0,0,0,0,0,0c0,0,0,0,0,0c0-0.1-0.1,0,0-0.1c0,0,0,0,0.1,0  c0,0,0,0,0,0c0,0,0,0,0,0c0,0,0,0,0-0.1c0-0.1,0-0.1,0-0.2c0,0,0,0,0,0c0-0.1,0-0.1,0-0.1c0,0,0-0.1,0-0.1c0,0,0,0,0-0.1  c0-0.1,0.1-0.1,0.1-0.2c0,0,0,0,0,0c0,0,0,0,0-0.1l0,0c0,0,0,0,0,0c0,0,0,0,0,0c0-0.1,0-0.1,0.1-0.2c0.1,0,0-0.1,0.1,0c0,0,0,0,0,0  c0,0,0.1,0,0.1,0c0,0,0.1-0.3,0.2-0.4c0,0,0,0,0,0c0,0,0,0,0-0.1c0,0,0,0,0,0c0,0,0,0,0-0.1c0,0,0,0,0,0c0.1,0,0.1,0,0.1-0.1  c0,0,0,0,0,0c0,0,0-0.1-0.1-0.1c0,0,0,0,0,0c0,0,0,0,0,0c0,0,0-0.1,0.1-0.1c0-0.1,0-0.1,0-0.1c0-0.1,0.1-0.1,0.1-0.1c0,0,0,0,0,0  c0,0,0-0.1,0.1-0.1l0.1,0c0-0.1,0.1-0.2,0.1-0.2c0.1-0.2,0.2-0.5,0.4-0.5c0.1,0,0.2,0.1,0.2,0.1c0,0,0,0,0,0c0,0,0,0.1,0,0.1  l0.1,0.1c0-0.1,0-0.1,0-0.1c0,0,0,0,0,0c0,0,0-0.1,0-0.1l0.1,0c0.1,0,0.2,0.1,0.3,0.1c0,0,0.1-0.1,0.1-0.1c0,0,0,0,0,0l0,0  c0,0,0,0,0,0c0,0,0,0,0,0c0,0,0.1,0,0.1,0c0,0,0,0.1,0,0.1c0,0,0,0,0,0c0,0,0,0,0,0c0,0,0.1,0.1,0.1,0.1c0,0,0,0,0,0c0,0,0,0,0,0  c0,0,0,0,0,0c0,0,0.1,0,0.1,0c0,0,0-0.1,0-0.1c0,0,0,0,0,0c0-0.1,0.1-0.2,0.1-0.2c0,0,0,0,0,0c0,0,0,0,0-0.1c-0.1,0-0.1,0-0.1,0  c0,0-0.1,0.1-0.1,0.1c0,0,0,0,0,0c0,0,0,0,0,0c0,0,0,0,0,0c0,0,0,0,0,0c0,0,0,0,0,0c0,0,0,0,0,0c0-0.1,0-0.1-0.1-0.1  c-0.1,0-0.2,0.1-0.3,0.1l-0.1,0c0-0.1,0-0.1-0.1-0.1c0,0,0,0,0,0c0,0,0,0,0,0c0,0,0,0.1-0.1,0.2c0,0-0.1,0-0.1,0  c-0.1,0-0.1-0.1-0.2-0.1c-0.1,0-0.1-0.2-0.1-0.2c0,0-0.1,0-0.1,0c0,0,0,0,0,0c0,0-0.1-0.2-0.1-0.2c0,0,0-0.1,0-0.1c0,0,0,0,0,0  c0,0,0-0.1,0.1-0.1c0,0,0.1,0,0.1,0c0,0,0.1-0.1,0.1-0.1c0,0,0,0,0.1,0c0,0,0,0,0,0c0,0,0,0,0,0c0,0,0.1-0.2,0.1-0.2c0,0,0,0,0-0.1  c0,0,0,0,0,0c0,0,0,0,0,0c0,0,0,0,0-0.1c0.1-0.1,0.1-0.3,0.2-0.4c0-0.1,0-0.1-0.1-0.2c0,0,0-0.1,0-0.1c0,0,0,0,0,0  c0-0.1,0-0.1,0.1-0.2c0.1-0.2,0.1-0.3,0.2-0.5c-0.1-0.1,0-0.3,0.1-0.4c0,0,0-0.1,0-0.1l0,0c0,0,0,0,0,0c0,0,0,0,0,0  c0-0.1,0.1-0.2,0.1-0.3c0,0,0.1-0.1,0.1-0.1c0,0,0,0,0,0c0.1,0,0.1,0,0.2-0.1c0,0,0,0,0.1,0c0,0,0,0,0,0c0,0,0,0,0,0  c0,0,0-0.1,0.1-0.1c0,0,0,0,0-0.1c0,0,0,0,0,0c0,0,0,0,0,0c0,0,0,0,0,0c0,0,0,0,0-0.1c0,0,0,0,0,0c0-0.1,0.1-0.1,0.1-0.2  c0,0,0,0,0,0c0,0,0,0,0,0c0,0,0-0.1,0-0.1c0,0,0,0,0,0c0,0,0,0,0,0c0,0,0-0.1,0-0.1c0,0,0-0.1-0.1-0.1c0.1-0.1,0.1-0.2,0.2-0.4  c0-0.1-0.1-0.1,0-0.2c0,0,0,0,0.1,0c0.1,0,0.1,0,0.1,0c0,0,0,0,0-0.1c0,0,0,0,0-0.1c0,0,0,0,0,0c0,0,0,0,0,0c0,0,0,0,0,0  c0.1-0.1,0.1-0.2,0.2-0.3c0.1-0.3,0.2-0.5,0.4-0.8c0.1,0,0.1,0,0.2-0.1c0,0,0-0.1-0.1-0.1c0,0,0-0.1,0-0.1c0,0,0.1,0,0.1,0  c0,0,0,0,0,0c0,0,0,0,0,0c0,0,0,0,0,0c0,0,0,0,0-0.1c0,0,0,0,0,0c0,0,0-0.1,0-0.1c0,0,0,0,0.1-0.1c0,0,0,0,0,0c0,0,0-0.1,0-0.1  c-0.1,0-0.1-0.1,0-0.2c0,0,0,0,0.1,0c0,0,0,0,0,0c0,0,0,0,0,0l0.1,0c0,0,0,0,0-0.1c0,0,0,0,0,0c0-0.1,0-0.1,0.1-0.2c0,0,0.1,0,0.1,0  c0,0,0,0,0,0c0,0,0,0,0,0c0,0,0,0,0,0c0,0,0,0,0,0c0,0,0,0,0,0c0,0,0,0,0,0c0,0,0,0,0,0c0,0,0,0,0.1,0c0.1-0.1,0.1-0.1,0.3,0  c0,0,0,0,0,0c0,0,0,0,0,0c0,0,0.1-0.2,0.1-0.2c0,0-0.1,0-0.2-0.1c0,0,0-0.1,0-0.1c0-0.1-0.1-0.2-0.1-0.2c0,0,0-0.1,0-0.1  c0,0,0-0.1,0-0.1c0,0,0,0,0,0c0,0,0,0,0,0c0,0,0-0.1,0.1-0.1c0-0.1,0.1-0.2,0.1-0.3c0,0,0-0.1,0.1-0.1c0,0,0,0,0,0c0,0,0,0,0,0  c0,0,0,0,0,0c0,0,0,0,0,0c0-0.1,0,0,0-0.1c0,0,0,0,0,0c0.1-0.1,0.1-0.3,0.2-0.4c0,0,0,0,0,0c0,0,0,0,0,0c0,0,0,0,0-0.1c0,0,0,0,0,0  c0,0,0,0,0,0c0,0,0,0,0,0c0,0,0.1,0,0.1-0.1c0,0,0,0,0,0c0,0,0-0.1,0.1-0.1c0,0,0,0,0,0c0,0,0-0.1,0-0.1c0,0,0,0,0,0  c0.1-0.1,0.1-0.2,0.2-0.3c0,0,0,0,0,0c0-0.1-0.1-0.1,0-0.2c0,0,0.1,0,0.1,0c0,0,0-0.1,0-0.1c0,0,0.1-0.1,0.1-0.1l0.1,0  c0-0.1,0.1-0.2,0.1-0.3c0.1,0,0.2-0.1,0.2-0.2c0.2,0,0.1-0.1,0.2-0.1c0,0,0,0,0,0c0.1,0,0.1,0.1,0.1,0c0,0,0-0.1,0.1-0.1  c0,0,0,0,0,0c0,0,0,0,0.1,0c0,0,0,0,0,0l0,0c0,0,0,0,0,0c0.1,0,0.1-0.1,0.2-0.1l0.1,0.1c0,0,0,0,0,0c0,0,0,0,0,0c0,0,0,0,0,0  c0.1,0,0.1,0,0.2,0c0,0,0,0.1,0,0.1c0,0,0,0,0,0c0,0,0,0,0,0.1c0,0,0.1,0,0.1,0c0.1,0,0.1,0.1,0.2,0.1c0,0,0,0,0,0.1  c0,0,0,0.1,0,0.1l0,0c0,0,0,0.1,0,0.1c0,0,0,0,0.1,0c0,0,0.1,0,0.1,0c0,0,0,0,0,0.1c0,0.1,0.1,0.1,0.1,0.2c0,0,0,0,0,0  c0,0,0,0,0,0.1c-0.1,0.1-0.1,0.2-0.2,0.3c0,0,0,0.1,0.1,0.1c0,0-0.1,0.2-0.1,0.2c0,0,0,0,0,0c0,0,0,0,0,0c0,0,0,0.1,0.1,0.1  c0,0.1-0.1,0.1-0.1,0.2c0,0,0,0.1,0,0.2c0,0,0,0,0,0c0,0-0.2,0.2-0.2,0.3l0,0c0,0,0,0.1,0,0.1c0,0,0,0,0,0c0,0,0,0,0,0.1  c0,0,0,0,0,0c0,0.1-0.1,0.2-0.1,0.3c-0.1,0.2-0.1,0.3-0.2,0.5c0,0.1,0,0.1-0.1,0.2c0,0,0,0,0,0l0,0.1c0,0,0,0,0,0  c-0.1,0.1-0.1,0.2-0.2,0.3c0,0,0,0,0,0c0,0,0,0-0.1,0c0,0,0,0,0,0c-0.1,0.1-0.3,0.1-0.4,0.2c0,0.1-0.1,0.1-0.1,0.2  c0,0.1,0,0.1,0.1,0.2c0,0,0,0,0,0c0,0,0,0,0,0c0,0,0,0,0,0c0,0,0,0,0,0.1c0,0,0,0,0,0.1c0,0,0,0,0,0c0,0,0,0.1,0,0.1c0,0,0,0,0,0  c0,0,0,0.1,0,0.1c0,0,0,0,0,0c0,0.1,0,0.1-0.1,0.2c0,0,0,0,0,0c0,0,0,0.1,0,0.1c0,0,0,0,0,0c0,0,0,0,0,0c0,0,0,0,0,0  c0,0,0,0.1,0,0.1c0,0,0,0,0,0c-0.1,0.1-0.1,0.2-0.2,0.4c0,0,0,0,0,0c0,0,0,0.1,0,0.1c0,0-0.1,0-0.1,0.1c0,0,0,0,0,0c0,0,0,0,0,0  c0,0,0,0,0,0c0,0,0,0,0,0c0,0,0,0,0,0c-0.1,0.1-0.1,0.2-0.2,0.3c0,0.1,0,0.1-0.1,0.2c0,0,0,0,0,0c-0.1,0.2-0.2,0.4-0.3,0.6  c-0.1,0.1-0.1,0.2-0.2,0.3c0,0,0,0,0,0c0,0,0,0,0,0l0.1,0.1c0,0.1,0,0.1-0.1,0.2c0,0,0,0-0.1,0c0,0,0,0,0,0l0,0c0,0,0,0-0.1,0  l-0.1,0.1c0,0,0,0,0,0.1c0,0,0,0,0,0c0,0,0,0,0,0c0,0,0,0,0,0.1c0,0,0,0,0,0c0,0,0,0,0,0c-0.1,0.2-0.1,0.3-0.2,0.5c0,0,0,0,0,0  c0,0,0,0.1-0.1,0.1c0,0,0,0,0,0c0,0.1-0.1,0.2-0.1,0.2c0,0,0,0,0,0c0,0,0,0,0,0c0,0.1-0.1,0.1-0.1,0.2c0,0,0,0,0,0c0,0,0,0.1,0,0.1  c0,0,0,0,0,0c0,0-0.1,0.1-0.1,0.1c0,0.1-0.1,0.2-0.1,0.3c0,0,0,0,0,0c0,0-0.1,0.1-0.1,0.1c0,0,0.1,0.3,0.1,0.3c0,0,0,0.1,0,0.1  c0,0,0,0.1,0.1,0.1c0,0,0,0,0,0.1c0,0,0,0,0,0c0,0,0,0,0,0c0,0.1-0.1,0.1-0.1,0.2c0,0.1-0.1,0.2-0.1,0.3c0,0-0.1,0.1-0.1,0.1  c0,0,0,0,0,0c0,0,0,0,0,0.1c0.1,0.1,0,0.1,0,0.2c0,0-0.1,0-0.2,0.1c0,0.1,0,0.1-0.1,0.2c0,0,0,0,0,0c0,0.1-0.1,0.2-0.1,0.2  c-0.1,0-0.1,0-0.2,0.1c0,0.1,0,0.1-0.1,0.2c0,0,0,0,0.1,0.1c0,0,0.1-0.1,0.1-0.1c0.1,0,0.1,0,0.1,0.1c0,0,0,0,0,0.1  c0,0.1-0.1,0.1-0.1,0.2c0,0.1,0,0.1-0.1,0.2c0,0,0,0,0,0c-0.1,0.1-0.1,0.2-0.1,0.2c0,0,0.1,0.1,0.1,0.1c0,0,0.1,0,0.1,0c0,0,0,0,0,0  c0,0,0,0,0,0c0,0.1,0,0.1,0.1,0.1c0,0,0,0,0,0c0,0,0.1,0,0.1,0c0,0,0,0,0,0c0,0,0,0,0,0c0,0,0,0,0,0.1c0,0,0,0,0,0c0,0,0,0,0,0  c0,0,0,0,0,0.1c0.1,0,0.2,0.1,0.4,0.1l0,0.1c0,0,0,0.1,0,0.1c0,0,0.1,0.1,0.1,0.1c0,0,0,0.1,0,0.1c0,0,0,0,0,0c0,0,0,0,0,0  c0,0,0.1,0,0.1,0c0,0,0-0.1,0.1-0.1c0.1,0,0.1,0.1,0.2,0.1c0,0,0,0,0,0c0.1,0,0.2,0.1,0.2,0.1c0,0,0,0,0,0c0,0,0,0,0,0l0,0.1  c0,0,0,0,0,0c0,0,0,0.1,0,0.1c0,0,0,0,0,0l-0.1,0.1c0,0.1,0,0.1,0.1,0.2c0,0,0,0.1,0,0.1c0,0.1-0.1,0.1-0.1,0.2c0,0,0.2,0.1,0.2,0.1  c0,0,0.1,0.1,0.2,0.1c0,0,0.1,0,0.1-0.1c0,0-0.1-0.1-0.1-0.1c0,0,0,0,0-0.1c0,0,0.1,0,0.1-0.1c0,0,0,0-0.1-0.1c0,0,0-0.1,0-0.1  c0,0,0-0.1,0-0.1l0,0l0-0.1c0,0,0,0,0-0.1c0,0,0,0,0,0c0,0,0,0,0,0c0-0.1,0.1-0.1,0.1-0.2c0,0,0.1,0,0.1,0c0,0,0-0.1,0.1-0.1  c0,0,0.1,0,0.2,0.1c0,0,0,0,0-0.1c0,0,0,0,0,0c0,0,0,0,0-0.1c0,0,0.1,0,0.2,0c0,0,0,0,0,0.1l0,0.1c0,0,0,0,0,0c0,0,0,0,0,0  c0,0,0,0,0,0.1c0,0,0,0,0,0c0.2,0.1,0.4,0.2,0.5,0.2c0,0,0,0,0,0.1c0,0,0,0,0,0l0,0c0,0.1,0.1,0.1,0.2,0.1c0,0,0,0,0,0c0,0,0,0,0,0  c0,0,0,0,0,0c0,0,0,0,0,0c0,0,0,0,0,0l0,0c0,0,0,0,0,0c0,0,0,0,0,0c0,0,0,0,0,0c-0.1,0.1-0.1,0.3-0.2,0.4c-0.1,0-0.1,0-0.2,0.1  c0,0,0,0.1,0,0.1c0,0,0,0,0,0c0,0,0,0,0,0c0,0-0.1,0-0.1,0c0,0,0,0,0,0c0,0,0,0,0,0c0,0,0,0.1,0,0.1c0,0,0.1,0.1,0.1,0.1  c0,0,0,0.1,0,0.1c0,0,0,0,0,0c0,0,0,0,0,0c0,0,0.1,0,0.1,0c0,0,0,0.1,0,0.1c0,0,0,0,0,0.1c0,0,0,0,0,0c0,0,0,0,0,0c0,0,0,0,0,0  c0,0,0,0.1,0,0.1c0,0,0,0,0,0c0,0,0.1,0,0.1,0c0,0,0,0,0,0c0,0,0.1,0,0.1,0c0,0,0.1,0,0.1,0c0,0,0,0,0.1,0c0,0,0,0,0,0c0,0,0,0,0,0  c0.1-0.1,0-0.1,0.1-0.2c0,0,0,0,0,0c0,0,0,0,0.1,0c0,0,0,0,0,0c0,0,0,0,0.1,0c0,0,0,0,0,0c0,0,0,0.1,0,0.1c0.1,0,0.1,0,0.2,0  c0,0,0,0,0,0c0,0,0,0,0,0c0,0,0,0.1,0,0.1c0,0,0,0,0,0c0,0,0,0,0,0c0,0,0,0,0,0l0,0c0,0,0,0,0.1,0c0,0,0,0,0,0c0,0,0,0,0,0  c0,0,0,0,0,0c0.1,0,0.2,0.1,0.3,0.1c0,0,0,0,0,0c0,0,0,0,0,0c0,0-0.1,0.2-0.1,0.2c0,0,0,0,0,0.1c0,0,0,0,0,0c0,0,0,0,0,0  c0,0,0,0.1,0,0.1c0,0,0,0,0,0c0,0,0,0,0,0c0,0,0,0,0,0c0,0,0,0,0,0c0,0,0,0,0,0c0,0-0.1,0.1-0.1,0.1c0,0,0,0,0,0c0,0,0,0,0.1,0.1  c0,0,0,0,0.1,0c0.1,0,0-0.1,0.1,0c0,0,0,0,0,0c0,0.1,0,0.1,0.1,0.1c0,0,0,0,0,0c0,0,0.1,0,0.1,0c0,0,0,0,0,0c0,0,0.1-0.3,0.2-0.3  c0.1,0,0.2-0.1,0.3,0c0,0,0,0.1,0,0.1c0,0,0.1,0.1,0.1,0c0,0,0-0.1,0-0.1c0,0,0-0.1,0-0.1c0,0,0,0,0,0c0,0,0,0,0,0c0,0,0,0,0,0  c0,0,0-0.1,0-0.1c0,0,0,0,0,0c0,0,0,0,0,0c0,0,0,0,0-0.1c0-0.1,0.1-0.1,0.1-0.2c0,0,0,0,0,0c0,0,0,0,0,0c0.1,0,0.1,0,0.2-0.1l0,0  c0,0,0,0,0,0c0,0,0,0,0.1,0l0.1,0c0,0,0,0,0,0c0,0,0,0,0,0l0,0c0,0,0,0,0,0c0,0,0.1-0.1,0.1-0.1c0,0,0,0,0,0l0.1-0.1  c0.1,0,0.2,0,0.2-0.1c0,0,0,0,0,0c0,0-0.1-0.1-0.1-0.1c0-0.1,0.2-0.4,0.2-0.5c0,0,0,0,0,0c0,0,0,0,0,0c0,0,0,0,0,0c0,0,0,0,0,0  c0,0,0,0,0,0c0,0,0,0,0,0c0,0,0,0,0.1,0c0.1,0,0.1,0,0.1,0c0,0,0,0,0,0c0,0,0,0,0-0.1c0,0,0,0,0,0c0,0,0,0,0,0c0,0,0,0,0,0  c0,0,0,0,0,0c0,0,0,0,0-0.1c0,0,0,0,0,0c0,0,0-0.1,0-0.1l0,0c0,0,0,0,0,0l0,0c0,0,0-0.1,0-0.1c0,0,0,0,0,0c0,0,0,0,0,0  c0,0,0.1-0.1,0.1-0.2c0,0,0,0,0,0c0,0,0,0,0-0.1c0,0,0,0,0,0c0,0,0,0,0,0c0,0,0,0,0,0c0,0,0,0,0,0c0,0,0,0,0,0c0,0,0-0.1,0-0.1  c0.1-0.2,0.1-0.3,0.2-0.4c0.1-0.1,0.1-0.2,0.1-0.3c0.1-0.1,0.1-0.2,0.2-0.4c0,0,0,0,0,0c0,0,0.1,0,0.1-0.1c0-0.1,0-0.1,0.1-0.2  c0,0,0,0,0,0c0,0,0,0,0,0l0.1,0l0.1-0.1c0,0,0,0,0.1,0c0,0,0,0,0,0l0.1,0c0,0,0,0,0,0c0,0,0.1,0,0.1,0c0,0,0,0,0,0c0,0,0,0,0.1,0  c0,0,0,0,0,0c0.1,0.1,0.2,0.1,0.3,0.2c0,0,0.1,0,0.1-0.1c0-0.1-0.1-0.1-0.1-0.2c0,0-0.1,0-0.1-0.1c-0.1,0-0.2-0.1-0.2-0.1  c0,0,0-0.1,0-0.1c0-0.1,0.1-0.2,0.1-0.2c0,0,0.1,0,0.1,0c0-0.1,0.1-0.2,0.1-0.3c0,0,0.1,0,0.1,0c0,0,0,0,0,0c0,0,0,0,0,0  c0,0,0-0.1,0.1-0.1c0,0,0,0,0,0c0,0,0,0,0,0c0,0,0.1,0,0.1,0c0.1-0.1,0.1-0.2,0.2-0.3c0,0,0,0,0-0.1c0,0,0,0,0,0c0,0,0,0,0,0  c0,0,0.1,0,0.1,0c0,0,0,0,0,0c0,0,0,0,0,0c0-0.1,0.1-0.2,0.1-0.3c0,0,0,0,0,0c0,0,0,0,0-0.1c0,0,0.1,0,0.1,0c0,0,0,0,0,0  c0,0,0,0,0,0c0-0.1,0.1-0.2,0.1-0.3c0,0,0,0,0,0c0,0,0,0,0,0c0,0,0.1,0,0.1,0c0.1,0,0.1-0.1,0.1-0.2c0,0,0,0,0,0c0,0,0,0,0-0.1  c0,0,0,0,0,0c0,0,0.1,0,0.1-0.1c0,0,0.1-0.4,0.2-0.4c0.1-0.1,0.1-0.1,0.2-0.2c0,0,0-0.1,0-0.1c0,0,0,0,0,0c0,0,0,0,0-0.1  c0,0,0,0,0,0c0,0,0,0,0-0.1c0,0,0,0,0.1,0c0,0,0,0,0.1,0c0,0,0,0,0,0c0-0.1,0.1-0.1,0.1-0.2c0,0,0-0.1,0-0.1c0,0,0,0,0,0  c0,0,0,0,0,0c0,0,0,0,0,0c0,0,0,0,0,0c0,0,0,0,0,0c0,0,0,0,0,0c0.1-0.1,0.1-0.2,0.2-0.3c0,0,0,0,0.1,0c0,0,0,0,0,0c0,0,0,0,0,0  c0.1,0,0.1-0.1,0.1-0.2c0,0,0,0,0,0c0,0,0-0.1,0-0.1c0,0,0,0,0,0c0,0,0,0,0,0c0,0,0,0,0,0c0,0,0,0,0,0c0,0,0.1,0,0.1,0c0,0,0,0,0,0  c0,0,0,0,0,0c0,0,0-0.1,0-0.1l0.1,0c0,0,0,0,0,0c0,0,0,0,0,0c0,0,0-0.1,0.1-0.1c0,0,0,0,0,0c0-0.1,0.1-0.2,0.1-0.3c0,0,0,0,0,0  c0-0.1,0.1-0.1,0.1-0.2c0,0,0,0,0,0c0,0,0,0,0,0c0,0,0,0,0.1,0c0,0,0,0,0-0.1c0,0,0,0,0,0c0-0.1,0.1-0.2,0.1-0.3c0,0,0,0,0,0  c0,0,0,0,0,0c0,0,0,0,0.1,0c0,0,0,0,0,0c0,0,0,0,0,0c0,0,0-0.1,0.1-0.1c0,0,0,0,0,0c0,0,0,0,0,0c0,0,0,0,0,0c0,0,0,0,0,0  c0.1-0.1,0-0.1,0.1-0.2c0,0,0,0,0,0c0,0,0,0,0,0c0,0,0.1,0,0.1,0c0,0,0,0,0,0c0,0,0,0,0,0c0,0,0-0.1,0-0.1c0,0,0.1,0,0.1,0  c0,0,0,0,0,0c0,0,0,0,0,0c0,0,0-0.1,0.1-0.1c0,0,0,0,0,0c0,0,0,0,0-0.1c0,0,0,0,0,0c0,0,0,0,0,0l0.1,0c0,0,0,0,0,0l0,0c0,0,0,0,0,0  c0.1,0,0.1,0,0.2-0.1c0,0,0,0,0,0c0,0,0,0,0,0c0,0,0,0,0,0c0,0,0-0.1,0.1-0.1c0,0,0,0,0,0c0,0,0.1,0,0.2,0.1c0,0,0,0,0,0  c0,0,0.1,0,0.1,0c0,0,0,0,0,0c0,0,0.1,0,0.1,0.1c0,0,0,0,0.1,0c0,0,0,0,0,0c0,0,0.1,0.1,0.1,0.1c0,0,0,0,0,0.1c0,0,0,0,0,0  c0,0,0,0,0,0l0,0c0,0,0,0,0,0c0,0,0,0,0,0c0,0,0,0,0,0c0,0,0,0,0,0c0.1,0,0.1,0,0.2,0c0,0.1,0.1,0.1,0.1,0.2c0.1,0,0.1,0.1,0.2,0.1  c0,0.1-0.1,0.2-0.2,0.3c0.1,0.1,0,0.2,0,0.4c0,0.1-0.1,0.1-0.1,0.2c0,0,0,0,0,0c0,0,0,0,0,0c0,0,0,0,0,0c0,0.1,0,0.1,0,0.2  c0,0-0.1,0-0.1,0.1c0,0,0.1,0.1,0.1,0.1c-0.1,0.3-0.2,0.5-0.3,0.8c0,0.1-0.1,0.2-0.1,0.3c0,0,0,0,0,0c0,0,0,0,0,0c0,0-0.1,0-0.1,0  c-0.1,0.2-0.2,0.4-0.3,0.7c0,0,0,0,0,0l0,0.1c0,0-0.1,0-0.2,0.1c0,0,0,0,0,0.1c0,0-0.1,0.1-0.1,0.1c0,0,0,0,0,0c0,0,0,0,0,0  c0,0,0,0,0,0c0,0,0,0.1,0,0.1c0,0,0,0,0,0c-0.1,0-0.1,0-0.2-0.1c0,0-0.1,0.1-0.1,0.1c0,0,0,0,0,0c0,0,0,0,0,0c0,0,0,0,0,0.1  c0,0,0,0,0,0c0,0,0,0.1,0,0.1c0,0,0.1,0.1,0.1,0.1c0,0.1-0.1,0.2-0.1,0.3c0,0-0.1,0-0.1,0c0,0,0,0,0,0c0,0,0,0,0,0  c-0.1,0.1-0.1,0.3-0.2,0.4c-0.1,0-0.1,0-0.2,0.1c0,0,0,0,0,0c0,0,0,0.1,0,0.1c0,0.1-0.1,0.2-0.2,0.3c0,0-0.1,0-0.1,0  c-0.1,0,0,0.1-0.1,0.2c0,0,0,0,0,0c0,0,0,0,0,0.1c0,0-0.1,0-0.1,0c0,0,0,0,0,0c0,0,0,0,0,0c0,0.1-0.1,0.1-0.1,0.2c0,0-0.1,0-0.1,0  c0,0-0.1,0.1-0.1,0.1c0,0-0.1,0-0.1,0c0,0,0,0,0,0c-0.1,0,0,0-0.1,0.1c0,0.1-0.1,0.2-0.1,0.3c0,0,0,0,0,0c0,0,0,0,0,0c0,0,0,0,0,0  c0,0.1-0.1,0.1-0.1,0.1c0,0,0,0.1-0.1,0.1c0,0,0,0,0,0c0,0,0,0,0,0c0,0-0.1,0.1-0.1,0.1l0,0l-0.1,0c0,0,0-0.1-0.1-0.1c0,0,0,0,0,0  c0,0,0,0,0,0l0,0c-0.1,0-0.1,0-0.2,0c0-0.1,0-0.1,0-0.1c0,0,0,0,0,0c-0.1,0-0.1,0.1-0.2,0.1c0,0.2,0,0.2,0.1,0.4c0,0,0,0.1,0,0.1  c0,0,0,0,0.1,0c0,0,0,0,0,0c0,0,0.1,0.1,0.1,0.1c0,0,0,0,0,0.1c0,0,0,0,0,0c0,0,0,0,0,0.1c0,0,0.1,0,0.1,0.1c0,0,0,0.1,0,0.2  c-0.1,0-0.1,0-0.2,0c0,0.1-0.1,0.2-0.1,0.2c0,0,0,0,0,0c0,0,0,0,0,0c0,0-0.1,0-0.1,0c0,0,0,0,0,0c0,0,0,0,0,0c0,0,0,0.1-0.1,0.1  c0,0,0,0,0,0c0,0-0.1,0.1-0.1,0.2c0,0,0,0,0,0c0,0,0,0.1,0,0.1c0,0,0,0,0,0c0,0,0,0,0,0c0,0-0.1,0-0.1,0.1c0,0,0,0,0,0  c0,0,0,0.1-0.1,0.1c-0.1,0-0.1,0-0.2,0.1c-0.1,0-0.2,0.1-0.4,0.1l-0.2,0.1c0,0,0,0,0,0c0,0-0.1,0-0.1,0c0,0,0,0.1-0.1,0.1  c-0.1,0-0.1,0-0.2,0.1c0,0-0.1,0-0.1,0c-0.1,0.1-0.3,0.1-0.4,0.2c0,0-0.1,0-0.1,0c0,0.1-0.1,0.2-0.1,0.2c0,0,0,0.1,0,0.1  c0,0,0,0,0,0c0,0,0,0.1,0,0.1c-0.1,0-0.1,0.1-0.2,0.1c0,0,0,0,0,0c0,0-0.1,0-0.1,0c0,0,0,0,0,0c0,0,0,0-0.1,0c0,0,0,0,0,0  c0,0,0,0,0,0c0,0,0,0,0,0c0,0-0.1-0.1-0.1-0.1c0,0,0,0,0,0c0,0,0,0-0.1,0.1c0,0,0,0,0,0c0,0,0,0.1,0,0.1c0,0,0,0.1,0,0.1  c0,0,0,0,0.1,0c0.1,0.1,0.1,0.1,0,0.2c0,0,0,0,0,0c-0.1,0-0.1,0-0.2-0.1c0,0,0,0,0,0c0,0-0.1,0-0.1-0.1c0,0,0,0,0,0c0,0,0,0-0.1,0  c0,0,0,0,0,0l-0.1,0c-0.1,0.1-0.2,0-0.2,0.1l0,0c0,0,0,0,0,0c0,0,0.1,0,0.1,0.1c0,0,0,0,0,0c0,0,0,0,0,0c0,0,0,0,0,0.1c0,0,0,0,0,0  c0,0.1,0,0,0.1,0.1c0,0,0.1-0.1,0.2,0c0,0,0,0.1,0,0.1c-0.1,0-0.1,0-0.2,0.1c0,0,0,0-0.1,0c0,0,0,0,0,0c0,0,0,0,0,0  c0,0,0,0.1-0.1,0.1c0,0,0,0,0,0c0,0,0,0,0,0c0.1,0,0.1,0,0.2,0.1c0,0,0,0,0,0l0,0.1c0,0,0,0,0,0c0,0,0,0,0,0c0,0,0,0,0,0  c0,0,0,0,0,0.1c0,0-0.1,0-0.1,0.1c-0.1,0-0.1-0.1-0.2-0.1c0,0,0,0,0,0c0,0,0,0,0,0c0,0,0,0,0,0c0,0.1,0,0.1,0.1,0.2c0,0,0,0,0,0.1  c0,0,0,0,0,0c0,0-0.1,0-0.1,0c0,0,0,0,0,0c0-0.1,0.1-0.2,0-0.2c0,0,0,0,0,0c0,0,0,0,0,0c0,0,0,0,0,0c0,0,0,0.1-0.1,0.1  c0,0,0,0.1,0.1,0.1l0,0.1c0,0,0,0,0,0c0,0,0,0,0,0.1c0,0,0,0,0,0c0,0.1-0.1,0.1-0.1,0.2c0,0,0,0,0,0c0,0,0,0,0,0c0,0,0,0,0,0  c0,0-0.1,0-0.1,0.1c0,0,0,0.1,0,0.2c0,0-0.2,0.1-0.2,0.2l0,0c0,0,0,0,0,0c0.1,0.1,0.2,0.1,0.2,0.2c0,0,0,0-0.1,0c0,0,0,0,0,0.1  c0,0,0,0,0,0c0,0,0,0.1,0,0.1c0,0,0,0,0,0c0,0,0,0,0,0c0,0-0.1,0.1,0,0.1c0,0.1,0.1,0,0.2,0.1c0,0,0,0,0,0c0,0,0,0,0,0c0,0,0,0,0,0  c0,0.1,0.1,0.1,0.2,0.2c0,0,0,0,0,0c0-0.1,0-0.1,0.1-0.2c0,0,0,0,0,0c0,0,0,0,0.1,0c0,0,0,0,0,0c0,0,0,0,0,0c0,0,0,0,0,0  c0,0,0,0,0,0c0,0,0,0,0,0c0,0,0,0,0,0.1c0,0,0,0,0,0c0,0,0,0,0,0c0,0,0,0,0,0c0,0,0.1,0,0.1,0c0,0,0,0,0,0c0.1,0,0,0,0.1,0  c0.1-0.1,0-0.1,0-0.2c0,0,0,0,0,0c0,0,0,0,0,0c-0.1-0.1-0.1,0,0-0.1l0.1,0c0,0,0,0,0,0c0,0,0.2,0.1,0.2,0.1c0,0,0,0.1,0,0.1  c0,0,0,0,0,0c0,0,0,0,0,0.1l0.1,0.1c0,0,0,0,0,0c0,0,0.1-0.1,0.1,0c0,0,0,0,0,0c0,0,0.1,0,0.1,0c0,0,0,0.1,0.1,0.1c0,0,0,0,0,0  c0,0,0,0,0,0c0,0,0,0,0,0c0.1,0,0.1,0,0.2,0.1c0,0,0,0,0,0c0,0,0,0,0,0c0,0,0,0.1,0,0.1c0,0.1,0.2,0,0.2,0.1c0,0,0,0,0,0  c0.1,0,0.2,0.1,0.3,0.1c0,0,0.1,0.1,0.1,0.1c0,0,0,0,0,0c0,0,0,0,0,0c0,0,0,0,0,0c0.1,0.1,0.1,0,0.1,0.1c0,0,0,0,0,0  c0.1,0,0.1,0.1,0.2,0.1c0,0,0,0.1,0,0.1c0,0,0.1,0,0.1,0.1c0.1,0.1,0.2,0.1,0.3,0.1c0.1,0,0.1,0,0.1-0.1c0.1,0.1,0.3,0.1,0.4,0.2  c0,0,0.1,0.1,0.1,0c0,0,0,0,0,0c0,0,0.1,0,0.1,0c0,0,0,0,0,0c0,0,0,0,0.1,0c0,0,0,0,0,0c0,0,0-0.1,0-0.1c0,0,0-0.1,0-0.1  c0,0,0,0,0,0c0,0,0,0,0,0c0,0,0-0.1,0-0.1c0,0,0,0,0,0c0,0,0,0,0,0c0,0,0,0,0,0c0-0.1,0-0.1-0.1-0.2c0-0.1,0.1-0.1,0.2-0.2  c0.1-0.1,0.1-0.3,0.1-0.3c0,0,0.2-0.1,0.3-0.1c0,0,0,0,0.1,0c0,0,0,0,0,0c0,0,0,0,0,0c0,0,0,0,0.1,0c0,0,0,0,0,0c0,0,0,0,0,0  c-0.1-0.1-0.1-0.2,0-0.3c0.1,0,0.1,0,0.2-0.1c0,0,0,0,0-0.1c0,0,0,0,0,0c0,0,0,0,0,0c0,0,0,0,0.1,0c0,0,0,0,0.1,0c0,0,0,0,0,0  l0.1-0.1c0.1,0,0.2-0.1,0.3-0.1c0,0,0-0.1,0-0.1c0,0,0,0,0,0c0,0,0,0,0,0c0,0,0.1,0,0.1,0c0,0,0.1-0.1,0.1-0.1l0.1,0c0,0,0,0,0,0  c0,0,0,0,0.1,0c0,0,0,0,0,0c0,0,0,0,0,0c0,0,0,0,0,0c0,0,0,0,0.1,0c0,0,0-0.1,0.1-0.1c0,0,0,0,0.1,0c0,0,0,0,0,0c0,0,0,0,0.1,0  c0.1,0,0.1,0,0.2-0.1c0,0,0,0,0,0c0,0,0,0,0.1,0c0,0,0,0,0,0c0,0,0,0,0.1,0c0,0,0,0,0,0c0,0,0,0,0,0c0,0,0,0,0,0c0,0,0,0,0,0  c0,0,0,0,0,0l0,0c0,0,0,0,0,0c0,0,0.1,0,0.1-0.1c0,0,0,0,0,0l0,0c0,0,0,0,0,0c0,0,0-0.1,0.1-0.1c0,0,0,0,0,0c0,0,0,0,0,0  c0,0,0.1,0,0.1,0c0,0,0,0,0,0c0,0,0,0,0.1,0c0,0,0.1,0,0.1-0.1c0,0,0,0,0,0c0,0,0,0,0,0c0,0,0.1,0,0.1,0l0,0c0,0,0,0,0,0  c0,0,0,0,0,0c0,0,0,0,0.1,0c0,0,0-0.1,0.1-0.1c0,0,0,0,0,0l0-0.1c0,0,0.1,0,0.1,0l0.1-0.1c0,0,0,0,0.1,0c0,0,0,0,0,0  c0,0,0-0.1,0-0.1c0,0,0,0,0,0c0,0,0,0,0,0c0,0,0,0,0,0c0,0,0,0,0,0c0,0,0,0,0,0c0,0,0,0,0,0c0,0,0,0,0,0c0,0,0,0,0,0  c0.2-0.1,0.3-0.1,0.5-0.2l0.1,0.1c0.1-0.1,0.1-0.2,0.1-0.3c0,0,0,0,0,0c0,0,0,0,0,0l0.1,0c0,0,0.1-0.1,0.1-0.1c0,0,0-0.1-0.1-0.1  c0,0,0,0,0,0c0,0,0,0,0,0c0,0,0.1,0,0.1-0.1c0,0,0,0,0,0c0,0,0-0.1,0.1-0.1c0,0,0,0,0,0c0,0,0,0,0,0c0,0,0.1,0,0.1,0  c0-0.1,0.1-0.1,0.1-0.2c0,0,0,0,0.1,0c0,0,0-0.1,0.1-0.1c0,0,0,0,0,0c0,0,0,0,0-0.1c0,0,0,0,0,0c0,0,0,0,0.1,0c0,0,0,0,0.1,0  c0,0,0,0,0,0c0,0,0,0,0,0c0,0,0-0.1,0-0.1c0,0,0,0,0,0c0,0,0,0,0,0c0,0,0.1,0,0.1,0c0,0,0,0,0,0c0,0,0,0,0,0c0,0,0.1-0.1,0.1-0.1  c0,0,0,0,0,0c0,0,0,0,0,0c0,0,0,0,0.1,0c0,0,0.1-0.1,0.1-0.1c0,0,0,0,0.1,0c0,0,0,0,0,0c0,0,0,0,0.1,0c0,0,0,0,0,0c0,0,0,0,0.1,0  c0,0,0,0,0,0c0,0,0,0,0,0c0,0,0,0,0,0c0,0,0,0,0,0c0,0,0-0.1,0.1-0.1c0,0,0.1,0,0.1,0c0,0,0,0,0,0c0,0,0,0,0,0c0,0,0,0,0-0.1  c0,0,0,0,0,0c0,0,0,0,0,0c0,0,0,0,0,0c0,0,0,0,0,0c0,0,0,0,0,0c0,0,0.1,0,0.1-0.1c0,0,0,0,0,0c0,0,0,0,0,0l0.1,0c0,0,0-0.1,0.1-0.1  c0,0,0.1,0,0.1,0c0.1,0,0.2-0.1,0.3-0.1c0,0,0,0,0,0c0,0,0.1,0,0.1,0c0.1,0,0.1-0.1,0.2-0.1c0,0,0,0,0,0c0,0,0,0,0.1,0  c0,0,0.1,0,0.1,0c0,0,0,0,0,0c0,0,0,0,0,0c0,0,0,0,0.1,0c0,0,0,0,0,0c0,0,0,0,0,0c0,0,0,0,0.1,0c0,0,0,0,0,0c0,0,0.1,0,0.1,0  c0,0,0,0,0,0c0,0,0,0,0.1,0c0,0,0,0,0.1,0c0,0,0,0,0,0c0.1,0,0.1,0.1,0.2,0.1c0,0,0,0,0,0c0,0,0,0,0,0c0,0,0.1,0,0.1-0.1  c0.1,0,0.1,0,0.2,0.1c0,0,0,0,0,0.1c0,0,0,0,0,0c0,0,0,0,0,0c0,0,0,0,0,0c0,0,0,0,0,0c0.1,0,0.1,0.1,0.2,0.1c0,0,0,0,0,0  c0.1,0,0.1,0.1,0.1,0.2c0,0.1,0.1,0.2,0.1,0.2c0,0,0,0.1,0,0.1c-0.1,0.2-0.2,0.4-0.3,0.5c0,0,0,0,0,0c0,0,0,0,0,0c0,0,0,0,0,0  c0,0,0,0,0,0c0,0,0,0,0,0.1l-0.1,0.1c0,0,0,0,0,0c0,0,0,0.1-0.1,0.1c0,0,0,0,0,0c0,0,0,0.1,0,0.1c0,0,0,0,0,0c0,0.1,0,0.1-0.1,0.2  c0,0.1-0.1,0.2-0.1,0.2c0,0-0.1,0.1-0.1,0c0,0.1-0.1,0.1-0.1,0.2c0,0,0,0,0,0c0,0.1-0.1,0.1-0.1,0.2c0,0,0,0,0,0c0,0,0,0.1,0,0.1  c0,0,0,0,0,0c0,0,0,0,0,0c0,0-0.1,0-0.1,0c0,0,0,0,0,0.1c0,0-0.1,0.1-0.1,0.1c-0.1,0-0.2,0-0.2,0.1c0,0,0,0.1,0,0.1c0,0,0,0,0,0  c0,0,0,0,0,0c0,0,0,0,0,0c0,0,0,0,0,0c-0.2,0.1-0.4,0.2-0.7,0.2c-0.1,0-0.2,0.1-0.3,0.1c-0.1,0-0.1,0.1-0.2,0.1  c0,0.1-0.1,0.1-0.1,0.2c0,0,0,0,0,0c0,0-0.1,0-0.1,0.1c0,0,0,0.1,0,0.1c0,0-0.1,0-0.1,0c0,0-0.1,0-0.1,0.1c0,0-0.1,0-0.1,0  c0,0,0,0,0,0.1c0,0,0,0,0,0c0,0,0,0,0,0c0,0,0,0,0,0c0,0,0,0.1-0.1,0.1c0,0,0,0,0,0c0,0.1-0.1,0.1-0.1,0.2c0,0,0,0,0,0c0,0,0,0,0,0  c0,0-0.1,0-0.1,0c0,0,0,0,0,0c0,0,0,0-0.1,0c0,0,0,0.1,0,0.1c0,0,0,0,0,0c0,0,0,0,0,0.1c0,0-0.1,0-0.1,0c0,0,0,0.1-0.1,0.1  c0,0,0,0,0,0c0,0,0,0,0,0c0,0,0,0,0,0c0,0,0,0,0,0c0,0,0,0,0,0c0,0,0,0,0,0c0,0,0,0,0,0c0,0-0.1,0-0.1,0.1c0,0,0,0,0,0c0,0,0,0,0,0  c0,0,0,0,0,0c0,0,0,0,0,0c0,0,0,0,0,0c0,0,0,0,0,0c0,0,0,0,0,0c0,0,0,0,0,0.1c0,0,0,0,0,0c0,0,0,0,0,0c-0.1,0-0.2,0.1-0.2,0.1  c0,0,0,0,0,0.1c0,0-0.3,0.2-0.4,0.2c0,0-0.1,0-0.1,0c-0.1,0-0.2,0.1-0.2,0.1c0,0,0,0,0,0.1c0,0,0,0,0,0c0,0,0,0-0.1,0c0,0,0,0,0,0  c0,0,0,0,0,0c0,0,0,0,0,0c0,0,0,0,0,0c0,0,0,0,0,0c0,0,0,0-0.1,0c0,0,0,0,0,0l-0.2,0.1c0,0,0,0,0,0c0,0,0,0-0.1,0c0,0-0.1,0-0.1,0  c-0.1,0-0.2,0.1-0.2,0.1c-0.1,0,0,0.1-0.1,0.1c-0.1,0-0.2-0.1-0.2-0.1c-0.1,0-0.1,0.1-0.1,0.2c0,0,0,0.1-0.1,0.1c0,0,0,0-0.1,0  c0,0-0.1,0.1-0.1,0.1c0,0-0.1,0-0.1,0c0,0,0,0,0,0c0,0,0,0,0,0c0,0-0.1,0.1-0.1,0.1c0,0-0.1,0-0.1,0c0,0,0,0.1-0.1,0.1c0,0,0,0,0,0  c0,0,0,0,0,0.1c0,0,0,0,0,0c0,0,0,0,0,0c0,0,0,0-0.1,0c0,0.1-0.1,0.2-0.1,0.3c0,0-0.1,0-0.1,0c0,0-0.1,0.1-0.1,0.1c0,0,0,0-0.1,0  c0,0,0,0,0,0c0,0-0.1,0-0.1,0c0,0,0,0,0,0c0,0,0,0,0,0c0,0,0,0-0.1,0c0,0,0,0-0.1,0c0,0,0,0-0.1,0c0,0,0,0,0,0l0,0c0,0,0,0,0,0l0,0  c0,0,0,0,0,0c0,0,0,0,0,0c0,0,0,0,0,0c0,0,0,0,0,0c0,0,0,0-0.1,0l-0.1,0.1c0,0,0,0,0,0c0,0,0,0,0,0c0,0,0,0,0,0c0,0,0,0,0,0  c0,0,0,0,0,0c0,0,0,0-0.1,0c0,0,0,0,0,0l0,0c-0.1,0-0.1,0-0.1,0.1c0,0,0,0.1-0.1,0.2c0,0,0,0,0,0c0,0,0,0,0,0c0,0-0.1,0-0.1,0  c-0.1,0,0,0.1-0.1,0.2c0,0-0.1,0.1-0.1,0.2c0,0,0,0,0,0c0,0,0,0,0,0c0,0,0,0,0,0c-0.1,0.3-0.3,0.6-0.4,1c-0.1,0.1-0.1,0.2-0.2,0.3  c0,0,0,0,0,0c0,0,0,0,0,0.1c0,0,0,0,0,0.1c0,0,0,0.1,0,0.1c0,0,0,0,0,0c-0.1,0.2-0.2,0.4-0.3,0.7l-0.1,0.1c0,0,0,0,0,0  c0,0,0,0.1-0.1,0.2c-0.1,0.1-0.1,0.2-0.2,0.3c0,0,0,0-0.1,0c0,0,0,0-0.1,0c0,0,0,0.1,0,0.1c0,0,0,0,0,0c0,0,0,0-0.1,0c0,0,0,0,0,0  c-0.1,0-0.2-0.1-0.2-0.1c0,0,0,0,0,0c0,0.1-0.1,0.1-0.1,0.2c0,0,0,0,0,0c0,0-0.1,0-0.1,0.1l0,0.1c0,0,0,0,0,0c0,0,0,0,0,0.1l0,0  c0,0,0,0,0,0c0,0,0,0,0,0c0,0,0,0.1,0,0.1c0,0,0,0,0,0c0,0.1,0,0.1,0.1,0.1c0,0.1-0.1,0.1-0.1,0.1c0,0,0,0.1,0,0.2l0,0.1  c0,0,0,0,0,0c0,0,0,0,0,0.1l0,0c0,0.1,0,0.1,0,0.2c-0.1,0-0.1,0-0.1,0.1c0,0,0,0,0,0c0,0.1-0.1,0.2-0.1,0.3c0,0,0,0,0,0c0,0,0,0,0,0  c0,0.1,0,0.1-0.1,0.2c0,0-0.1,0.1-0.1,0.1c0,0,0,0-0.1,0c0,0.1-0.1,0.1-0.1,0.2c0,0,0,0,0,0c0,0,0,0,0,0c0,0-0.1,0-0.1,0  c0,0,0,0,0,0c0,0,0,0,0,0c0,0,0,0.1,0,0.1c0,0-0.1,0-0.1,0c0,0,0,0,0,0c0,0,0,0,0,0c0,0,0,0,0,0c0,0-0.1,0-0.1,0c0,0,0,0.1-0.1,0.1  c0,0-0.1,0-0.1,0c0,0,0,0,0,0c0,0,0,0,0,0c0,0.1-0.1,0.2-0.1,0.3c0,0,0,0,0,0c0,0,0,0,0,0c0,0-0.1,0-0.1,0c0,0,0,0,0,0.1  c0,0,0,0,0,0c0,0,0,0.1,0,0.1c0,0,0,0,0,0c0,0,0,0,0,0c0,0,0,0,0,0c0,0,0,0,0,0c0,0,0,0,0,0l-0.1,0c0,0,0,0,0,0l0,0c0,0,0,0,0,0  c0,0,0,0,0,0c0,0,0,0,0,0c0,0,0,0,0,0c-0.1,0-0.1,0-0.2,0.1c0,0,0,0-0.1,0c0,0-0.1,0-0.1,0c0,0,0-0.1,0-0.1c0,0,0,0,0,0c0,0,0,0,0,0  c-0.1,0-0.1-0.1-0.2-0.1c0,0,0,0,0,0c0,0,0,0,0,0l0-0.1c-0.1,0-0.1-0.1-0.2-0.1c0,0,0,0,0,0c0,0,0,0,0-0.1c0,0,0,0,0,0  c0,0,0,0,0-0.1c0,0,0,0,0-0.1c0,0,0,0,0,0c0,0,0-0.1,0.1-0.1c0,0,0,0,0,0c0,0,0,0,0,0c0,0-0.1,0-0.1,0c0,0,0,0,0,0c0,0,0,0,0,0  c0,0,0,0,0,0c0,0.1-0.1,0.1-0.1,0.2c0,0,0,0,0,0c0,0,0,0,0,0c0,0,0,0-0.1,0c0,0,0,0,0,0c0,0,0,0,0,0c0,0-0.1,0.1-0.1,0.1  c0,0,0,0,0,0c0,0,0,0,0,0.1c0,0,0,0,0,0c-0.1,0-0.1,0-0.1,0.1c0,0,0,0,0,0.1c0,0,0,0,0,0c0,0,0,0,0,0c0,0,0,0,0,0c0,0.1,0,0.1,0,0.2  c0,0,0,0,0,0c0,0,0,0.1-0.1,0.1c0,0,0,0-0.1,0c0,0-0.1,0-0.1,0.1c0,0,0,0,0,0c0,0,0,0,0,0c0,0,0,0,0,0.1c0,0,0,0,0,0c0,0,0,0,0,0  c0,0,0,0,0,0c0,0,0,0.1,0,0.1c0,0-0.1,0-0.1,0.1c0,0,0,0,0,0c0,0,0,0,0,0c0,0.1,0,0.1,0,0.1c0,0,0,0.1,0,0.1c0,0,0,0,0,0  c0,0,0,0,0,0c0,0,0,0,0,0.1c0,0.1-0.1,0.2-0.1,0.3c0,0,0,0-0.1,0c-0.1,0-0.1-0.1-0.2-0.1c0,0,0,0,0,0c-0.1,0-0.1,0-0.2-0.1  c0,0,0,0,0,0c0,0,0,0,0,0c0,0,0,0,0,0c0,0,0,0,0,0l0,0c-0.1,0-0.1,0-0.2,0c0,0,0,0,0,0.1c0,0,0,0,0,0c0,0,0,0.1,0,0.1  c-0.1,0.1,0,0-0.1,0.1c0,0,0,0,0,0c0,0,0,0,0,0c0,0-0.1,0.1-0.1,0.1c0,0-0.1,0-0.1,0c-0.1,0.1,0,0.2-0.1,0.1c0,0-0.1,0-0.1,0  c0,0-0.1,0-0.1,0.1l-0.1-0.1c0,0,0,0,0,0c0,0,0,0,0,0c0,0,0,0,0,0c0,0,0,0,0,0c0,0,0,0-0.1,0c0,0,0,0,0,0c0,0,0,0,0,0  c-0.1,0-0.1-0.1-0.2-0.1c0,0,0,0,0,0c0,0,0,0,0,0c0,0,0,0,0,0c0,0,0,0-0.1,0c0,0,0,0-0.1,0c-0.1,0-0.1,0-0.2,0  c-0.1,0.1-0.1,0.2-0.2,0.1c0,0,0,0,0,0c0,0-0.1,0-0.1-0.1c0,0,0,0-0.1,0.1c0,0.1,0.1,0.1,0.1,0.2c0,0,0,0,0,0c0,0,0,0-0.1,0  c0,0,0,0,0,0c0,0,0,0,0,0c0,0,0,0-0.1,0c0,0.1-0.1,0.2-0.1,0.2c0,0,0,0-0.1,0c0-0.1,0-0.1-0.1-0.2c0,0,0,0,0,0c0,0,0,0,0,0  c0,0,0,0,0,0c0,0,0,0,0,0c0,0,0,0-0.1,0.1c0,0,0,0,0,0c0,0,0,0,0,0c0,0,0,0,0,0c0,0,0.1,0,0.1,0.1c0,0,0,0,0,0c0,0,0,0,0,0  c0,0-0.1,0-0.1,0.1c0,0,0,0,0,0c0,0,0,0.1-0.1,0.1c0,0,0,0,0,0c0,0,0.1,0.1,0.1,0.1l-0.1,0.1c0,0,0,0,0,0c0,0,0,0,0,0c0,0,0,0,0,0  c0,0,0,0.1,0,0.1l0,0c0,0,0,0,0,0l0,0c0.7,0.1,1.4,0.1,2.1,0.1c10,0,18.1-8.1,18.1-18.1C188.9,8.1,180.8,0,170.7,0 M169.1,16.5  C169.1,16.5,169.1,16.5,169.1,16.5C169.1,16.4,169.1,16.4,169.1,16.5C169.1,16.4,169.1,16.4,169.1,16.5  C169.1,16.4,169.1,16.4,169.1,16.5C169.1,16.4,169.1,16.4,169.1,16.5C169.1,16.4,169.2,16.4,169.1,16.5  C169.1,16.5,169.1,16.5,169.1,16.5 M172,18.3C172,18.3,172,18.3,172,18.3c-0.1,0.1-0.1,0.1-0.2,0c0-0.1-0.2-0.1-0.3-0.1  c0,0-0.1,0-0.1,0c0,0,0,0-0.1,0c0,0,0,0,0,0c0,0,0,0,0,0c0,0,0,0-0.1,0c0,0,0,0,0,0c0,0,0,0,0,0c0,0,0,0,0,0l0,0  c0-0.1,0.1-0.1,0.1-0.2c0-0.1,0-0.1,0.1-0.1c0.1,0,0.1,0.1,0.2,0.1c0,0,0,0,0,0c0.1,0,0.1,0.1,0.2,0.1c0,0,0,0,0,0c0,0,0,0,0,0  c0,0,0,0,0,0c0,0,0,0,0,0c0,0,0,0,0,0.1c0,0,0,0,0,0c0,0,0,0,0,0c0,0,0.1,0,0.1,0.1C172,18.2,172,18.2,172,18.3  C172,18.3,172,18.3,172,18.3 M179.1,6.5C179.1,6.5,179.1,6.5,179.1,6.5l-0.1,0c0,0-0.1,0.1-0.1,0.1c0,0,0.1,0,0.1,0.1c0,0,0,0,0,0  c0,0,0,0,0.1,0c0,0,0,0,0,0c0,0,0,0,0,0c0,0,0,0,0,0c0,0,0,0.1,0,0.1c0,0,0,0,0,0.1c0,0,0,0,0,0c0,0,0,0,0,0.1c0,0,0,0.1,0,0.1  c0,0,0,0,0,0l0,0c-0.1,0.1-0.1,0.2-0.2,0.3c0,0,0,0.1,0.1,0.1c0,0.1-0.1,0.2-0.1,0.4c0,0,0,0.1,0,0.1c0,0,0,0,0,0  c0,0.1-0.1,0.2-0.1,0.2c0,0,0,0.1,0,0.1c0,0-0.1,0.1-0.1,0.1c0,0,0,0,0,0c0,0,0,0,0,0.1c0,0,0,0,0,0c0,0-0.1,0.1-0.1,0.1  c0,0.1,0,0.1-0.1,0.2c-0.1,0.2-0.2,0.5-0.3,0.7c0,0-0.1,0-0.1,0c0,0.1-0.1,0.2-0.1,0.2c0,0-0.1,0-0.1,0c0,0,0,0,0,0.1c0,0,0,0,0,0  c0,0,0,0.1,0,0.1c0,0,0,0,0,0c-0.1,0-0.1,0-0.1,0.1c0,0,0,0,0,0c0.1,0.1,0.1,0.1,0,0.3c0,0-0.1,0.2-0.1,0.2  c-0.1,0.2-0.2,0.4-0.3,0.6c0,0-0.1,0-0.1,0c0,0,0,0.1,0,0.1c0,0,0,0,0,0c0,0,0,0,0,0c0,0,0,0,0,0c0,0,0,0,0,0.1c0,0,0,0,0,0  c-0.1,0.2-0.1,0.3-0.2,0.5c0,0,0,0,0,0c-0.1,0.1-0.1,0.2-0.2,0.4c0,0-0.1,0.1-0.1,0.1c0,0,0,0,0,0c0,0,0,0,0,0l0,0c0,0,0,0,0,0  c0,0,0,0,0,0c0,0.1-0.1,0.2-0.1,0.3c-0.1,0.2-0.2,0.4-0.2,0.5c0,0,0,0,0,0.1c0,0,0,0,0,0c0,0,0,0,0,0c0,0,0,0,0,0c0,0,0,0,0,0  c0,0-0.1,0-0.1,0c-0.1,0.1,0,0.1-0.1,0.2c-0.1,0.1-0.2,0-0.2,0.2c0,0,0,0.1,0.1,0.1c0,0,0,0.1,0,0.1c0,0,0,0-0.1,0c0,0,0,0,0,0  c-0.1,0-0.1,0-0.1,0.1c0,0,0,0,0,0.1c0,0,0,0,0,0c0,0,0,0,0,0.1c0,0,0,0,0,0c0,0,0,0.1,0,0.1c0,0.1,0.1,0.1,0.1,0.2c0,0,0,0,0,0  c0,0,0,0,0,0c0,0,0,0.1,0,0.1c0,0.1-0.1,0.2-0.1,0.2c0,0-0.1,0-0.1,0c0,0.1-0.1,0.2-0.1,0.2c0,0-0.1,0-0.1,0c0,0,0,0,0,0  c0,0,0,0,0,0c-0.1,0.1-0.1,0.3-0.2,0.4c0,0,0,0,0,0c0,0,0,0,0,0c0,0-0.1,0-0.1,0c0,0,0,0,0,0c0,0,0,0,0,0c0,0.1,0,0.1-0.1,0.2  c0,0,0,0,0,0c0,0,0,0,0,0.1c0,0-0.1,0-0.1,0c0,0,0,0,0,0c0,0,0,0,0,0c-0.1,0.1,0,0.1-0.1,0.2c0,0,0,0,0,0c0,0,0,0,0,0  c0,0-0.1,0-0.1,0c0,0.1-0.1,0.2-0.1,0.2c0,0,0,0,0,0c0,0,0,0,0,0c0,0-0.1,0-0.1,0c0,0.1,0,0.1-0.1,0.2c0,0,0,0,0,0  c0,0.1-0.1,0.1-0.1,0.2c0,0,0,0,0,0c0,0.1-0.1,0.2-0.1,0.2c0,0.1-0.1,0.1-0.1,0.2c0,0,0,0,0,0c0,0,0,0-0.1,0c0,0,0,0-0.1,0  c0,0,0,0.1-0.1,0.1c0,0,0,0,0,0c0,0,0,0,0,0.1c0,0,0,0,0,0c0,0,0,0,0,0c0,0,0,0,0,0c-0.1,0-0.1,0.1-0.1,0.2c0,0,0,0.1,0.1,0.1  c0,0.1,0,0.1,0,0.1l-0.1,0c0,0.1-0.1,0.1-0.1,0.2c0,0-0.1,0-0.1,0c0-0.1-0.1-0.1,0-0.3c0.1,0,0.1-0.1,0.1-0.2l0.1-0.1c0,0,0,0,0,0  c0,0,0-0.1,0-0.1c0,0,0,0,0,0c0-0.1,0,0,0.1-0.1c0,0,0,0,0,0c0,0,0,0,0,0c0,0,0,0,0,0c0.1-0.1,0.1-0.3,0.2-0.4c0,0-0.1-0.1-0.1-0.1  c0,0,0,0,0,0c0,0,0,0.1-0.1,0.1c0,0.1-0.2,0.2-0.1,0.3c0,0,0,0,0,0c0,0,0,0,0,0c0,0,0,0,0,0c0,0,0,0,0,0c0,0,0,0,0,0c0,0,0,0-0.1,0  c0,0-0.1,0.1-0.1,0.2c0,0,0,0,0,0c0,0,0,0,0,0.1c0,0,0,0,0,0c0,0,0,0.1,0,0.1c0,0.1,0,0.1,0,0.2c0,0-0.1,0-0.1,0c0,0,0,0,0,0  c0,0-0.1,0-0.1,0c0,0,0,0,0,0c-0.1,0-0.1-0.1-0.2-0.1c0,0-0.1,0-0.1,0c0,0,0,0,0,0c0,0,0-0.1-0.1-0.1c0,0,0,0,0,0c0,0,0,0,0,0  c0,0,0,0,0,0c0,0,0,0,0,0c0,0,0,0-0.1,0c0,0-0.1,0-0.1,0c0,0,0,0,0,0c0,0-0.1,0-0.1,0c0,0,0,0,0,0c-0.1,0-0.1,0-0.1-0.1c0,0,0,0,0,0  c0,0,0,0,0,0c0,0,0,0,0,0c0.1-0.2,0.2-0.4,0.3-0.6c-0.1-0.1-0.1-0.1,0-0.2c0.1,0,0.1-0.1,0.1-0.1c0.1,0,0.1,0.1,0.2,0c0,0,0,0,0,0  c0,0,0,0,0,0c0,0,0,0,0-0.1c0,0,0,0,0,0l0,0c0,0,0,0,0,0c0,0,0,0,0,0c0,0,0,0,0-0.1c0-0.1,0-0.1,0.1-0.2c0,0,0,0,0,0c0,0,0,0,0-0.1  c0,0,0,0,0,0c0,0,0,0,0,0c0,0,0-0.1-0.1-0.1c0,0,0-0.1,0.1-0.1c0-0.1,0-0.1,0-0.2l0,0l0.1-0.1c0,0,0,0,0,0c0,0,0,0,0,0c0,0,0,0,0,0  c0,0,0,0,0,0c0-0.1,0-0.1,0.1-0.2c0,0,0-0.1,0-0.1c0,0,0,0,0,0c0,0,0,0,0,0c0-0.1,0.1-0.2,0.1-0.3c0,0,0,0,0-0.1c0,0,0,0,0,0  c0,0,0,0,0-0.1c0,0,0,0,0,0c0,0,0,0,0,0c0-0.1,0.1-0.1,0.1-0.2c0,0,0,0,0,0c0,0,0-0.1,0-0.1c0,0,0,0,0,0c0,0,0-0.1,0-0.1  c0,0,0,0,0,0c0-0.1,0.1-0.1,0.1-0.2c-0.1-0.1,0-0.2,0-0.3c0-0.1,0.1-0.1,0.1-0.2c0,0,0,0,0,0c0-0.1,0.1-0.2,0.1-0.3c0,0,0.1,0,0.1,0  c0,0,0,0,0,0c0,0,0,0,0,0c0.1-0.1,0-0.2,0.1-0.2c0,0,0,0,0,0l0,0c0,0,0,0,0,0c0,0,0,0,0,0c0.1,0,0.1,0,0.1-0.1c0,0,0-0.1,0-0.1  c0,0,0,0,0,0c0,0,0,0,0,0c0,0,0,0,0.1,0c0,0,0,0,0,0c0,0,0,0,0,0c0,0,0-0.1,0-0.1c0.1-0.2,0.1-0.3,0.2-0.5c0,0,0,0,0,0c0,0,0,0,0,0  c0,0,0.1,0,0.1,0c0,0,0,0,0,0c0,0,0,0,0,0c0.1-0.3,0.2-0.5,0.3-0.8c0-0.1,0.1-0.2,0.1-0.3c0,0,0,0,0,0c0-0.1,0.1-0.1,0.1-0.2  c0,0,0,0,0,0c0-0.1,0.1-0.3,0.2-0.3c0.1-0.3,0.2-0.5,0.3-0.8c0.1,0,0.2,0,0.2-0.1c0,0,0,0,0,0l0-0.1c0,0,0,0,0,0c0,0,0,0,0,0  c0,0,0.1,0,0.1,0c0-0.1,0.1-0.1,0.1-0.2c0,0,0.1,0,0.1,0c0,0,0,0,0,0c0,0,0,0,0,0c0.1,0,0.1-0.1,0.1-0.2c0,0,0-0.1-0.1-0.1  c0,0,0,0,0,0c0,0,0,0,0,0c0,0,0,0,0,0c0-0.1,0.1-0.1,0.1-0.2c0-0.1,0-0.2,0.1-0.2c0,0,0,0,0,0c0-0.1,0-0.1,0.1-0.2c0,0,0,0,0,0  c0,0,0,0,0,0c0,0,0,0,0.1,0c0,0,0,0,0,0c0,0,0,0,0.1,0c0,0,0,0,0,0c0,0,0,0,0,0c0,0,0,0,0,0c0,0,0,0,0,0c0-0.1,0.1-0.1,0.1-0.2  c0,0,0,0,0,0c0,0,0,0,0-0.1c0,0,0,0,0,0c0-0.1,0.1-0.2,0.1-0.3c0,0,0-0.1,0-0.1c0,0,0,0,0,0c0.1-0.1,0,0,0.1,0c0,0,0,0,0,0  c0,0,0,0,0,0c0,0,0,0,0,0c0,0,0,0,0,0c0-0.1,0.1-0.2,0.1-0.2c0,0,0.1,0,0.1-0.1c0,0,0,0,0,0c0,0,0-0.1,0-0.1c0,0,0,0,0,0  c0-0.1,0.1-0.1,0.1-0.2c0-0.1,0.1-0.2,0.1-0.2c0,0,0,0,0,0c0,0,0,0,0,0c0,0,0,0,0.1,0c0,0,0,0,0,0c0,0,0,0,0,0  c0.1-0.1,0.1-0.2,0.2-0.3c0,0,0,0,0,0c0,0,0.1,0,0.1,0c0-0.1,0.1-0.1,0.1-0.2c0,0,0.1,0,0.2-0.1c0,0,0-0.1,0-0.1c0,0,0,0,0,0  c0,0,0,0,0,0c0,0,0,0,0,0c0,0,0,0,0,0c0.1,0,0.1,0,0.2-0.1c0.2-0.1,0.3-0.1,0.5-0.2c0,0,0,0,0,0l0,0c0,0,0.1,0,0.1,0  c0.1,0,0.1,0.1,0.2,0.1c0,0,0,0,0,0c0.1,0,0.1,0,0.2,0.1c0,0,0,0,0,0c0,0,0.1,0,0.1,0.1c0,0,0,0,0,0c0,0,0,0,0.1,0c0,0,0,0,0,0  c0,0,0,0,0,0c0,0,0,0,0,0.1c0,0,0,0,0,0c0,0,0,0,0,0c0.1,0,0.1,0,0.2,0.1c0,0,0,0,0,0c0,0,0,0,0.1,0c0,0,0,0,0,0.1  C179.2,6.3,179.2,6.3,179.1,6.5 M174.1,23.5c0,0-0.1,0-0.1,0c0,0,0,0,0-0.1C174.1,23.4,174.1,23.4,174.1,23.5  C174.1,23.5,174.1,23.5,174.1,23.5 M175.1,21.7C175.1,21.7,175.1,21.7,175.1,21.7C175.1,21.7,175.1,21.7,175.1,21.7  c-0.1,0-0.1,0-0.1,0C175,21.6,175,21.6,175.1,21.7C175,21.6,175.1,21.6,175.1,21.7C175.1,21.6,175.1,21.6,175.1,21.7 M171.4,19.7  C171.4,19.7,171.4,19.7,171.4,19.7c0.1,0.1,0.1,0.1,0.1,0c0.1,0,0.1,0,0.1,0c0,0,0,0.1,0,0.1c0,0.1,0.1,0.1,0.2,0.1c0,0,0,0,0.1,0  c0.1,0,0.1-0.1,0.1-0.2c0,0,0,0,0,0c0,0,0,0,0,0c0,0-0.1,0-0.1,0c0,0-0.1,0.1-0.1,0c0-0.1,0-0.1-0.1-0.2  C171.4,19.5,171.4,19.6,171.4,19.7C171.4,19.7,171.4,19.6,171.4,19.7 M170,18.6C170,18.6,170,18.6,170,18.6  C170.1,18.6,170.1,18.6,170,18.6C170.1,18.6,170.1,18.6,170,18.6C170.1,18.6,170.1,18.6,170,18.6L170,18.6  C170.1,18.6,170,18.6,170,18.6C170,18.6,170,18.6,170,18.6C170,18.6,170,18.6,170,18.6 M172.2,19.2  C172.2,19.2,172.2,19.2,172.2,19.2C172.2,19.1,172.2,19.1,172.2,19.2C172.2,19.2,172.2,19.2,172.2,19.2  C172.2,19.2,172.2,19.2,172.2,19.2C172.2,19.2,172.2,19.2,172.2,19.2C172.2,19.2,172.2,19.2,172.2,19.2 M173.1,21.1  C173.1,21.1,173.1,21.1,173.1,21.1C173.1,21.1,173.1,21.1,173.1,21.1C173.1,21.1,173.1,21.1,173.1,21.1  C173.1,21.1,173.1,21.1,173.1,21.1 M173.9,22.1c0,0,0.1,0,0.1,0c0,0,0.1-0.1,0.1-0.2c0,0,0-0.1,0-0.1c0,0-0.1,0-0.1,0  C174,21.9,173.9,21.9,173.9,22.1C173.9,22.1,173.9,22.1,173.9,22.1C174,22.1,174,22.1,173.9,22.1 M176.7,19.9  C176.7,19.9,176.7,19.9,176.7,19.9C176.7,19.9,176.7,19.9,176.7,19.9C176.7,19.9,176.7,19.9,176.7,19.9  C176.7,19.9,176.7,19.9,176.7,19.9 M173.6,23.1C173.6,23.1,173.7,23,173.6,23.1C173.7,23,173.7,23,173.6,23.1  c0.1-0.1,0.1-0.1,0.1-0.2c0,0,0,0,0,0c0,0,0,0,0-0.1c0,0,0,0,0,0c0-0.1,0.1-0.1,0.1-0.2c0,0,0-0.1-0.1-0.1c-0.1,0.1-0.2,0.3-0.3,0.5  c0,0-0.1,0-0.1,0.1C173.5,23.1,173.6,23.1,173.6,23.1 M173.5,22.4C173.5,22.4,173.5,22.4,173.5,22.4  C173.5,22.4,173.6,22.4,173.5,22.4c0.1,0,0.1,0,0.1,0c0,0,0,0,0,0c0,0,0,0,0,0c0,0,0,0,0,0c0-0.1,0-0.2-0.1-0.2c0,0-0.1,0.1-0.1,0.1  C173.4,22.3,173.5,22.4,173.5,22.4 M171.1,19.4C171.2,19.4,171.2,19.5,171.1,19.4c0.1,0,0.1,0,0.2-0.1c0,0,0,0,0,0c0,0,0,0,0,0  c0,0-0.1,0-0.1,0C171.2,19.3,171.2,19.3,171.1,19.4c0-0.1,0-0.1,0-0.1C171.1,19.3,171.1,19.4,171.1,19.4L171.1,19.4  C171.1,19.4,171.1,19.4,171.1,19.4 M155.9,18.1C155.9,18.2,155.9,18.1,155.9,18.1C155.9,18.1,155.9,18.1,155.9,18.1 M178.4,18.5  C178.4,18.5,178.4,18.5,178.4,18.5C178.4,18.5,178.4,18.5,178.4,18.5C178.4,18.5,178.3,18.5,178.4,18.5  C178.3,18.5,178.3,18.5,178.4,18.5C178.4,18.6,178.4,18.5,178.4,18.5 M175.2,14.8C175.2,14.8,175.2,14.8,175.2,14.8  C175.2,14.8,175.2,14.8,175.2,14.8C175.2,14.8,175.3,14.8,175.2,14.8C175.3,14.8,175.3,14.8,175.2,14.8  C175.2,14.8,175.2,14.8,175.2,14.8 M171.9,17.5C171.9,17.5,171.9,17.5,171.9,17.5C171.9,17.5,171.9,17.4,171.9,17.5  C171.9,17.4,171.9,17.4,171.9,17.5C171.9,17.5,171.9,17.4,171.9,17.5 M179.7,25.5C179.7,25.5,179.7,25.5,179.7,25.5  C179.7,25.5,179.7,25.6,179.7,25.5C179.7,25.6,179.7,25.6,179.7,25.5C179.7,25.6,179.7,25.6,179.7,25.5 M177.4,17.4  C177.4,17.4,177.4,17.4,177.4,17.4C177.4,17.4,177.4,17.4,177.4,17.4C177.4,17.4,177.4,17.4,177.4,17.4  C177.4,17.4,177.4,17.4,177.4,17.4C177.4,17.4,177.5,17.4,177.4,17.4c0.1,0,0.1,0,0.2,0.1c0,0,0,0.1,0,0.1c0,0,0.1,0,0.1,0.1  c0,0,0,0,0,0c0.1,0,0.1-0.1,0.1-0.2c0,0-0.1,0-0.1-0.1c-0.1,0-0.1,0-0.1-0.1c0,0-0.1,0-0.1-0.1c0,0,0,0,0,0L177.4,17.4  C177.4,17.3,177.3,17.3,177.4,17.4 M180.5,14.8c0,0,0.1,0.1,0.1,0.1c0,0,0,0,0,0c0,0,0.1-0.1,0.1-0.2l0,0c0,0,0,0,0,0  c0,0-0.1,0-0.1-0.1c0,0,0,0,0,0c0,0-0.1,0-0.1,0c0,0,0,0,0,0c0,0,0,0,0,0c0,0,0,0,0,0c0,0,0,0,0,0c0,0,0,0,0,0  C180.4,14.8,180.4,14.8,180.5,14.8 M166.5,16.7C166.5,16.7,166.5,16.7,166.5,16.7C166.5,16.6,166.5,16.6,166.5,16.7  C166.4,16.7,166.4,16.7,166.5,16.7 M167.9,16.8C167.9,16.8,167.9,16.8,167.9,16.8C167.9,16.8,167.9,16.8,167.9,16.8  C167.9,16.8,167.9,16.8,167.9,16.8C167.9,16.8,167.9,16.8,167.9,16.8C167.9,16.8,167.9,16.8,167.9,16.8 M168,16.4  C168,16.4,168,16.4,168,16.4c0,0,0,0.2,0,0.2c0,0,0,0,0,0c0,0,0,0,0,0c0,0,0.1,0,0.1,0c0,0,0,0,0-0.1c-0.1-0.1,0-0.2-0.1-0.3  C168.1,16.4,168.1,16.4,168,16.4 M178.9,17.6C178.9,17.6,178.9,17.6,178.9,17.6C178.8,17.6,178.8,17.6,178.9,17.6  C178.8,17.6,178.8,17.6,178.9,17.6C178.9,17.6,178.9,17.6,178.9,17.6 M168.5,16.5C168.5,16.5,168.4,16.5,168.5,16.5  c-0.1,0-0.1,0-0.1,0c0,0,0,0.1,0.1,0.1C168.4,16.6,168.4,16.6,168.5,16.5C168.5,16.6,168.5,16.6,168.5,16.5  C168.5,16.6,168.5,16.6,168.5,16.5C168.5,16.6,168.5,16.6,168.5,16.5C168.5,16.6,168.5,16.5,168.5,16.5 M175,21.6  C175,21.6,175,21.7,175,21.6C175.1,21.7,175.1,21.7,175,21.6c0.1,0,0.1,0,0.1,0c0,0,0,0,0-0.1C175.1,21.6,175,21.6,175,21.6  C175,21.6,175,21.6,175,21.6 M169.2,16.4C169.1,16.4,169.1,16.4,169.2,16.4C169.1,16.4,169.1,16.4,169.2,16.4  C169.1,16.4,169.1,16.4,169.2,16.4C169.1,16.5,169.1,16.5,169.2,16.4C169.1,16.5,169.1,16.5,169.2,16.4  C169.2,16.4,169.1,16.4,169.2,16.4C169.1,16.4,169.1,16.4,169.2,16.4 M174,23.5c0.1,0,0.1,0,0.1,0c0,0,0-0.1,0-0.1  C174.1,23.4,174.1,23.4,174,23.5C174,23.4,174,23.4,174,23.5 M171.9,17.5C171.9,17.5,171.9,17.5,171.9,17.5  C171.9,17.4,171.9,17.5,171.9,17.5C171.9,17.4,171.9,17.4,171.9,17.5C171.9,17.4,171.9,17.5,171.9,17.5 M175.2,14.8  C175.2,14.8,175.2,14.8,175.2,14.8C175.2,14.8,175.2,14.8,175.2,14.8C175.2,14.8,175.2,14.8,175.2,14.8  C175.3,14.8,175.3,14.8,175.2,14.8C175.3,14.8,175.2,14.8,175.2,14.8 M172,18.2c0,0-0.1,0-0.1-0.1c0,0,0,0,0,0c0,0,0,0,0,0  c0,0,0,0,0-0.1c0,0,0,0,0,0c0,0,0,0,0,0c0,0,0,0,0,0c0,0,0,0,0,0c-0.1,0-0.1-0.1-0.2-0.1c0,0,0,0,0,0c-0.1,0-0.1-0.1-0.2-0.1  c0,0-0.1,0.1-0.1,0.1c0,0.1-0.1,0.1-0.1,0.2l0,0c0,0,0,0,0,0c0,0,0,0,0,0c0,0,0,0,0,0c0,0,0,0,0.1,0c0,0,0,0,0,0c0,0,0,0,0,0  c0,0,0,0,0.1,0c0,0,0.1,0,0.1,0c0.1,0,0.3,0.1,0.3,0.1c0.1,0.1,0.1,0.1,0.2,0c0,0,0,0,0,0C172,18.3,172,18.3,172,18.2  C172,18.2,172,18.2,172,18.2"></path>
<path class="st1" d="M129.8,57.8L129.8,57.8l5.4-12.8h2.6L131,60.3h-2.9l-3.3-12.5h-0.1l-4.6,12.5h-2.9L111.9,45h2.6  c1.4,4.3,2.9,8.6,4.4,12.8h0.1l4.7-12.8h2.7L129.8,57.8z M141.5,52.3v0.9c0,3.5,2.2,5.5,5.7,5.5c1.5,0,3.2-0.5,4.7-1l-0.4,2.3  c-1.5,0.4-3.1,0.6-4.7,0.6c-6.3,0-7.9-3.9-7.9-7.6c0-4.7,2.7-8.3,7.6-8.3c4,0,6.6,2.1,6.6,6.3c0,0.4,0,0.8-0.1,1.4H141.5z   M150.7,50.7c0-2.5-1.2-4.4-3.9-4.4c-2.8,0-4.6,1.8-5.1,4.4H150.7z M158.6,47.5L158.6,47.5c1-1.9,2.4-2.8,4.7-2.8  c0.4,0,0.8,0.1,1.2,0.2l0.1,2.3c-0.6-0.2-1.1-0.2-1.7-0.2c-2.5,0-3.9,2-4.2,4.3c-0.3,2-0.3,5.4-0.3,9.2h-2.7  c0.2-4.4,0.6-8.8,0.5-15.3h2.6L158.6,47.5z M169.8,39.7c-0.4,6.8-0.7,13.7-0.8,20.6h-2.7c0.5-6.8,0.7-13.7,0.8-20.6H169.8z   M178.7,45l-6.5,6.8l7,8.5h-3.1c-2.1-3-4.5-5.6-6.7-8.5c2.1-2.3,4.2-4.4,6.1-6.8H178.7z M180.1,47l0.1-1.9h2.1l0.2-2.8l2.4-0.5  l-0.1,3.3h4.2l-0.1,1.9h-4.2c-0.1,3-0.4,7.1-0.4,9c0,1.4,0.2,2.6,1.9,2.6c1,0,1.7-0.2,2.4-0.4l-0.3,2.1c-0.9,0.2-1.9,0.4-2.8,0.4  c-2.6,0-3.8-1-3.8-3.7c0-1.7,0.4-6.7,0.5-10H180.1z M199.1,56.7c1.4,0.6,2.9,1.1,4.4,1.1c1,0,2.3-0.3,2.3-1.6c0-2.2-5.8-3.9-5.8-7.4  c0-2.5,1.8-4.2,5.8-4.2c1.5,0,3.1,0.2,4.6,0.5l0.2,3.1c-1-0.4-2.1-0.8-3.4-0.8c-1.3,0-2.6,0.2-2.6,1.5c0,1.9,5.8,3.8,5.8,7.6  c0,3.2-3.5,4.2-6.1,4.2c-1.7,0-3.3-0.3-4.9-0.6L199.1,56.7z M221,60.4c-0.9,0.2-1.9,0.3-2.8,0.3c-5,0-5.5-3-5.5-4.3  c0-6.2,10.9-4.2,10.9-7.6c0-1.5-1.7-1.7-2.8-1.7c-2.1,0-4.1,0.6-6,1.3l0.5-2.9c2.2-0.5,4.4-0.9,6.7-0.9c2.7,0,6,0.6,6,4  c0,2.2-0.5,7.1-0.5,11.7H223c0.2-1.4,0.2-2.7,0.5-7.9c-1.6,1.4-6.8,1.3-6.8,4c0,1.4,1.4,1.8,2.6,1.8c0.8,0,1.6-0.2,2.4-0.5L221,60.4  z M235.6,47.3L235.6,47.3c1.1-1.8,2.9-2.7,5.1-2.7c2.1,0,3.9,0.8,4.6,2.8c1.1-2,3-2.8,5.2-2.8c2.7,0,4.9,1.2,4.9,4.2  c0,0.9-0.5,6.1-0.6,11.5h-4.3c0.2-2.3,0.6-8.6,0.6-9.7c0-1.5-0.6-2.6-2.3-2.6c-2,0-3,1.5-3.3,3.3c-0.3,1.9-0.4,7.4-0.5,8.9h-4.3  c0.2-3.2,0.5-6.4,0.5-9.6c0-1.5-0.5-2.7-2.2-2.7c-2.1,0-3,1.7-3.3,3.5c-0.4,2.2-0.4,7.3-0.4,8.8H231c0.1-1.3,0.6-9.2,0.7-15.3h4.1  L235.6,47.3z M262.5,52.9v0.5c0,2.9,1.9,4.5,4.7,4.5c1.8,0,3.5-0.5,5.1-1l-0.6,3.2c-1.6,0.4-3.3,0.6-5,0.6c-7.9,0-8.6-5.4-8.6-7.5  c0-2.8,1.1-8.6,8.3-8.6c4.2,0,7.2,2.1,7.2,6.5c0,0.6-0.1,1.3-0.2,1.8H262.5z M269.6,50.8c0-2.4-0.8-3.6-3.2-3.6  c-2.2,0-3.5,1.6-3.8,3.6H269.6z M280.9,47.5L280.9,47.5c1.4-2.1,3.5-2.9,6-2.9c3.3,0,5.7,1.3,5.7,4.9c0,1.9-0.4,6.2-0.4,10.8h-4.6  c0.4-3,0.7-6,0.7-8.9c0-2.2-1-3.3-3.3-3.3c-2.4,0-3.8,1.8-4.2,4c-0.5,2.5-0.5,6.8-0.5,8.2h-4.4c0.4-4.7,0.7-9.3,0.8-15.3h4.3  L280.9,47.5z M296.1,60.3l0.1-2.8h2.9l-0.2,2.8H296.1z M296.5,55.8c0.2-5.3,0.4-10.7,0.4-16h2.9c-0.3,3.6-0.4,7.3-0.9,16H296.5z"></path>
</svg>
